<svg xmlns="http://www.w3.org/2000/svg" xmlns:xlink="http://www.w3.org/1999/xlink" xmlns:lucid="lucid" width="2200" height="1050"><g transform="translate(-215 -1060)" lucid:page-tab-id=".Q4MUjXso07N"><path d="M0 1000h2500v1500H0z" fill="#fff"/><path d="M1620 1370h308l52 52v208h-360z" stroke="#000" stroke-width="8" fill="#4d9eff"/><path d="M1928 1373.8v48.2h48.2" stroke="#000" stroke-width="8" fill="#4d9eff"/><use xlink:href="#a" transform="matrix(1,0,0,1,1646,1401.2) translate(67.96728395061731 90.57777777777778)"/><use xlink:href="#b" transform="matrix(1,0,0,1,1646,1401.2) translate(163.97345679012346 90.57777777777778)"/><use xlink:href="#c" transform="matrix(1,0,0,1,1646,1401.2) translate(49.74475308641979 130.84444444444443)"/><use xlink:href="#d" transform="matrix(1,0,0,1,1646,1401.2) translate(198.6941358024691 130.84444444444443)"/><path d="M540 1500c0 33.14-26.86 60-60 60s-60-26.86-60-60 26.86-60 60-60 60 26.86 60 60zM420 1340c0 33.14-26.86 60-60 60s-60-26.86-60-60 26.86-60 60-60 60 26.86 60 60zM660 1340c0 33.14-26.86 60-60 60s-60-26.86-60-60 26.86-60 60-60 60 26.86 60 60zM420 1660c0 33.14-26.86 60-60 60s-60-26.86-60-60 26.86-60 60-60 60 26.86 60 60zM660 1660c0 33.14-26.86 60-60 60s-60-26.86-60-60 26.86-60 60-60 60 26.86 60 60z" stroke="#000" stroke-width="7" fill="#00c2a8"/><path d="M920 1288a8 8 0 0 1 8-8h284a8 8 0 0 1 8 8v424a8 8 0 0 1-8 8H928a8 8 0 0 1-8-8z" stroke="#333" stroke-width="10" fill="#635dff"/><use xlink:href="#e" transform="matrix(1,0,0,1,940,1280) translate(-8.406481481481194 191.46666666666673)"/><use xlink:href="#f" transform="matrix(1,0,0,1,940,1280) translate(34.888888888889085 277.06666666666655)"/><path d="M427 1340h11.5l1.88.15 1.83.44 1.75.7 1.6 1 1.44 1.22 1.2 1.43 1 1.6.72 1.74.43 1.82.15 1.88v8.4m0 11.2v16.8m0 11.2v8.4l.15 1.88.44 1.83.7 1.75 1 1.6 1.22 1.43 1.43 1.23 1.6 1 1.74.7 1.82.45 1.88.15h10.07m13.42 0h20.12m13.42 0h20.13m13.42 0h20.12m13.42 0h20.13m13.42 0h20.12m13.42 0h20.13m13.42 0h20.12m13.42 0h20.13m13.4 0h20.14m13.43 0H798l1.88-.15 1.83-.44 1.75-.7 1.6-1 1.44-1.22 1.2-1.43 1-1.6.7-1.74.45-1.82.15-1.88v-8.4m0-11.2v-16.8m0-11.2v-8.4l.15-1.88.44-1.83.7-1.75 1-1.6 1.22-1.43 1.43-1.23 1.6-1 1.74-.7 1.82-.45 1.88-.15h11m14.7 0h22.02m14.7 0h11" stroke="#333" stroke-width="7" fill="none"/><path d="M427.1 1343.47h-3.74l.14-3.46-.12-3.47h3.7z" stroke="#333" stroke-width=".05" fill="#333"/><path d="M908.12 1340l-12.9 7.64v-15.28z" stroke="#333" stroke-width="7" fill="#333"/><path d="M667 1340h11.5l1.88-.15 1.83-.44 1.75-.7 1.6-1 1.44-1.22 1.2-1.43 1-1.6.7-1.74.45-1.82.15-1.88v-14l.15-1.88.44-1.83.7-1.75 1-1.6 1.22-1.43 1.43-1.23 1.6-1 1.74-.7 1.83-.45 1.87-.15h11m14.68 0h22m14.68 0h22m14.68 0h22m14.68 0h22m14.68 0h11" stroke="#333" stroke-width="7" fill="none"/><path d="M667.1 1343.47h-3.74l.14-3.46-.12-3.47h3.7z" stroke="#333" stroke-width=".05" fill="#333"/><path d="M903.67 1302l-14.26 4.63v-9.27z" stroke="#333" stroke-width="7" fill="#333"/><path d="M547 1500h10.17m13.56 0h20.33m13.56 0h20.33m13.56 0h20.34m13.56 0h20.33m13.56 0h20.32m13.56 0h20.33m13.57 0h20.33m13.56 0h20.33m13.55 0h20.33m13.56 0h10.17" stroke="#333" stroke-width="7" fill="none"/><path d="M547.1 1503.47h-3.74l.14-3.46-.12-3.47h3.7z" stroke="#333" stroke-width=".05" fill="#333"/><path d="M903.67 1500l-14.26 4.63v-9.27z" stroke="#333" stroke-width="7" fill="#333"/><path d="M667 1660h11.03m14.7 0h22.05m14.7 0h22.05m14.7 0h11.02l1.88-.15 1.83-.44 1.74-.7 1.6-1 1.44-1.22 1.22-1.43.98-1.6.72-1.74.44-1.82.15-1.88v-8.1m0-10.8v-16.2m0-10.8v-8.1l.15-1.88.44-1.83.72-1.75.98-1.6 1.23-1.43 1.43-1.23 1.6-1 1.74-.7 1.83-.45 1.88-.15h12.7m16.93 0h25.4m16.93 0h12.7" stroke="#333" stroke-width="7" fill="none"/><path d="M667.1 1663.47h-3.74l.14-3.46-.12-3.47h3.7z" stroke="#333" stroke-width=".05" fill="#333"/><path d="M903.67 1582l-14.26 4.63v-9.27z" stroke="#333" stroke-width="7" fill="#333"/><path d="M427 1660h11.5l1.88-.15 1.83-.44 1.75-.7 1.6-1 1.44-1.22 1.2-1.43 1-1.6.72-1.74.43-1.82.15-1.88v-8.1m0-10.8v-16.2m0-10.8v-8.1l.15-1.88.44-1.83.7-1.75 1-1.6 1.22-1.43 1.43-1.23 1.6-1 1.74-.7 1.82-.45 1.88-.15h9.74m12.98 0h19.48m12.98 0h19.48m12.98 0h19.47m13 0h19.47m13 0h19.46m12.98 0h9.75l1.88-.15 1.83-.44 1.74-.7 1.6-1 1.44-1.22 1.22-1.43.98-1.6.72-1.74.44-1.82.15-1.88v-20l.15-1.88.44-1.83.72-1.75.98-1.6 1.23-1.43 1.43-1.23 1.6-1 1.74-.7 1.83-.45 1.88-.15h10.23m13.65 0h20.46m13.64 0h20.46m13.65 0h20.46m13.66 0h20.46m13.65 0h20.46m13.64 0h10.24" stroke="#333" stroke-width="7" fill="none"/><path d="M427.1 1663.47h-3.74l.14-3.46-.12-3.47h3.7z" stroke="#333" stroke-width=".05" fill="#333"/><path d="M903.67 1538l-14.26 4.63v-9.27z" stroke="#333" stroke-width="7" fill="#333"/><path d="M310 1318a8 8 0 0 1 8-8h84a8 8 0 0 1 8 8v44a8 8 0 0 1-8 8h-84a8 8 0 0 1-8-8z" fill="none"/><use xlink:href="#g" transform="matrix(1,0,0,1,310,1310) translate(8.945370370370384 21.022222222222222)"/><use xlink:href="#h" transform="matrix(1,0,0,1,310,1310) translate(20.074074074074076 47.95555555555555)"/><path d="M550 1318a8 8 0 0 1 8-8h84a8 8 0 0 1 8 8v44a8 8 0 0 1-8 8h-84a8 8 0 0 1-8-8z" fill="none"/><use xlink:href="#g" transform="matrix(1,0,0,1,550,1310) translate(8.945370370370384 21.022222222222222)"/><use xlink:href="#h" transform="matrix(1,0,0,1,550,1310) translate(20.074074074074076 47.95555555555555)"/><path d="M430 1478a8 8 0 0 1 8-8h84a8 8 0 0 1 8 8v44a8 8 0 0 1-8 8h-84a8 8 0 0 1-8-8z" fill="none"/><use xlink:href="#g" transform="matrix(1,0,0,1,430,1470) translate(8.945370370370384 21.022222222222222)"/><use xlink:href="#h" transform="matrix(1,0,0,1,430,1470) translate(20.074074074074076 47.95555555555555)"/><path d="M310 1638a8 8 0 0 1 8-8h84a8 8 0 0 1 8 8v44a8 8 0 0 1-8 8h-84a8 8 0 0 1-8-8z" fill="none"/><use xlink:href="#g" transform="matrix(1,0,0,1,310,1630) translate(8.945370370370384 21.022222222222222)"/><use xlink:href="#h" transform="matrix(1,0,0,1,310,1630) translate(20.074074074074076 47.95555555555555)"/><path d="M550 1638a8 8 0 0 1 8-8h84a8 8 0 0 1 8 8v44a8 8 0 0 1-8 8h-84a8 8 0 0 1-8-8z" fill="none"/><use xlink:href="#g" transform="matrix(1,0,0,1,550,1630) translate(8.945370370370384 21.022222222222222)"/><use xlink:href="#h" transform="matrix(1,0,0,1,550,1630) translate(20.074074074074076 47.95555555555555)"/><path d="M240 1218a8 8 0 0 1 8-8h1024a8 8 0 0 1 8 8v564a8 8 0 0 1-8 8H248a8 8 0 0 1-8-8z" stroke="#333" stroke-width="10" fill-opacity="0"/><path d="M480 1088a8 8 0 0 1 8-8h384a8 8 0 0 1 8 8v124a8 8 0 0 1-8 8H488a8 8 0 0 1-8-8z" fill="none"/><use xlink:href="#i" transform="matrix(1,0,0,1,480,1080) translate(29.016975308641975 34.0888888888889)"/><use xlink:href="#j" transform="matrix(1,0,0,1,480,1080) translate(107.57253086419753 34.0888888888889)"/><use xlink:href="#k" transform="matrix(1,0,0,1,480,1080) translate(222.10154320987652 34.0888888888889)"/><use xlink:href="#l" transform="matrix(1,0,0,1,480,1080) translate(273.1003086419753 34.0888888888889)"/><use xlink:href="#m" transform="matrix(1,0,0,1,480,1080) translate(337.31635802469134 34.0888888888889)"/><use xlink:href="#n" transform="matrix(1,0,0,1,480,1080) translate(42.54598765432101 61.022222222222226)"/><use xlink:href="#o" transform="matrix(1,0,0,1,480,1080) translate(157.01265432098765 61.022222222222226)"/><use xlink:href="#p" transform="matrix(1,0,0,1,480,1080) translate(184.32006172839505 61.022222222222226)"/><use xlink:href="#q" transform="matrix(1,0,0,1,480,1080) translate(203.02376543209874 61.022222222222226)"/><use xlink:href="#r" transform="matrix(1,0,0,1,480,1080) translate(300.095987654321 61.022222222222226)"/><use xlink:href="#s" transform="matrix(1,0,0,1,480,1080) translate(6.977777777777817 87.95555555555555)"/><use xlink:href="#t" transform="matrix(1,0,0,1,480,1080) translate(140.83395061728396 87.95555555555555)"/><use xlink:href="#u" transform="matrix(1,0,0,1,480,1080) translate(221.32222222222222 87.95555555555555)"/><use xlink:href="#v" transform="matrix(1,0,0,1,480,1080) translate(345.7641975308642 87.95555555555555)"/><use xlink:href="#w" transform="matrix(1,0,0,1,480,1080) translate(129.33117283950617 114.88888888888889)"/><use xlink:href="#x" transform="matrix(1,0,0,1,480,1080) translate(155.454012345679 114.88888888888889)"/><use xlink:href="#y" transform="matrix(1,0,0,1,480,1080) translate(192.36265432098764 114.88888888888889)"/><path d="M1843.88 1798.63A12.07 12.07 0 0 0 1855 1806h117a8 8 0 0 1 8 8v198a8 8 0 0 1-8 8h-344a8 8 0 0 1-8-8v-224a8 8 0 0 1 8-8h200a12.07 12.07 0 0 1 11.12 7.37zM1620 1806h227" stroke="#333" stroke-width="7" fill="#fff"/><g><use xlink:href="#z" transform="matrix(1,0,0,1,1628,1780) translate(18.909567901234567 17.955555555555552)"/></g><g><use xlink:href="#A" transform="matrix(1,0,0,1,1632,1814) translate(83.30339506172841 63.0888888888889)"/><use xlink:href="#B" transform="matrix(1,0,0,1,1632,1814) translate(102.0070987654321 63.0888888888889)"/><use xlink:href="#C" transform="matrix(1,0,0,1,1632,1814) translate(195.33858024691358 63.0888888888889)"/><use xlink:href="#D" transform="matrix(1,0,0,1,1632,1814) translate(34.517901234567944 90.02222222222223)"/><use xlink:href="#E" transform="matrix(1,0,0,1,1632,1814) translate(55.71543209876547 90.02222222222223)"/><use xlink:href="#F" transform="matrix(1,0,0,1,1632,1814) translate(144.05925925925928 90.02222222222223)"/><use xlink:href="#G" transform="matrix(1,0,0,1,1632,1814) translate(171.36666666666667 90.02222222222223)"/><use xlink:href="#H" transform="matrix(1,0,0,1,1632,1814) translate(235.58271604938273 90.02222222222223)"/><use xlink:href="#I" transform="matrix(1,0,0,1,1632,1814) translate(8.61327160493829 116.95555555555555)"/><use xlink:href="#J" transform="matrix(1,0,0,1,1632,1814) translate(84.55030864197532 116.95555555555555)"/><use xlink:href="#K" transform="matrix(1,0,0,1,1632,1814) translate(160.61203703703703 116.95555555555555)"/><use xlink:href="#L" transform="matrix(1,0,0,1,1632,1814) translate(282.62253086419753 116.95555555555555)"/><use xlink:href="#M" transform="matrix(1,0,0,1,1632,1814) translate(106.40246913580248 143.88888888888889)"/><use xlink:href="#N" transform="matrix(1,0,0,1,1632,1814) translate(146.179012345679 143.88888888888889)"/></g><path d="M1596.42 1500h-351.84" stroke="#635dff" stroke-width="7" fill="none"/><path d="M1609.12 1500l-12.9 7.64v-15.28zM1231.88 1500l12.9-7.64v15.28z" stroke="#635dff" stroke-width="7" fill="#635dff"/><path d="M1285 1248a8 8 0 0 1 8-8h319a8 8 0 0 1 8 8v244a8 8 0 0 1-8 8h-319a8 8 0 0 1-8-8z" fill="none"/><g><use xlink:href="#O" transform="matrix(1,0,0,1,1285,1240) translate(14.395370370370387 60.93333333333335)"/><use xlink:href="#P" transform="matrix(1,0,0,1,1285,1240) translate(64.96203703703705 60.93333333333335)"/><use xlink:href="#Q" transform="matrix(1,0,0,1,1285,1240) translate(171.64537037037036 60.93333333333335)"/><use xlink:href="#R" transform="matrix(1,0,0,1,1285,1240) translate(283.7416666666667 60.93333333333335)"/><use xlink:href="#S" transform="matrix(1,0,0,1,1285,1240) translate(40.74074074074079 90.53333333333335)"/><use xlink:href="#T" transform="matrix(1,0,0,1,1285,1240) translate(139.2703703703704 90.53333333333335)"/><use xlink:href="#U" transform="matrix(1,0,0,1,1285,1240) translate(228.68703703703702 90.53333333333335)"/><use xlink:href="#V" transform="matrix(1,0,0,1,1285,1240) translate(28.715740740740785 120.13333333333334)"/><use xlink:href="#W" transform="matrix(1,0,0,1,1285,1240) translate(173.70092592592593 120.13333333333334)"/><use xlink:href="#X" transform="matrix(1,0,0,1,1285,1240) translate(284.42685185185184 120.13333333333334)"/><use xlink:href="#Y" transform="matrix(1,0,0,1,1285,1240) translate(22.68611111111113 149.73333333333332)"/><use xlink:href="#Z" transform="matrix(1,0,0,1,1285,1240) translate(207.13796296296297 149.73333333333332)"/><use xlink:href="#aa" transform="matrix(1,0,0,1,1285,1240) translate(279.56203703703704 149.73333333333332)"/><use xlink:href="#ab" transform="matrix(1,0,0,1,1285,1240) translate(45.297222222222246 179.33333333333331)"/><use xlink:href="#ac" transform="matrix(1,0,0,1,1285,1240) translate(94.56203703703704 179.33333333333331)"/><use xlink:href="#ad" transform="matrix(1,0,0,1,1285,1240) translate(164.45092592592593 179.33333333333331)"/><use xlink:href="#ae" transform="matrix(1,0,0,1,1285,1240) translate(225.98055555555555 179.33333333333331)"/><use xlink:href="#af" transform="matrix(1,0,0,1,1285,1240) translate(7.440740740740807 208.9333333333333)"/><use xlink:href="#ag" transform="matrix(1,0,0,1,1285,1240) translate(120.90740740740745 208.9333333333333)"/><use xlink:href="#ah" transform="matrix(1,0,0,1,1285,1240) translate(141.462962962963 208.9333333333333)"/><use xlink:href="#ai" transform="matrix(1,0,0,1,1285,1240) translate(235.81296296296296 208.9333333333333)"/></g><path d="M1803.5 1637.5c0 1.93-1.57 3.5-3.5 3.5s-3.5-1.57-3.5-3.5 1.57-3.5 3.5-3.5 3.5 1.57 3.5 3.5zm0 13.55c0 1.93-1.57 3.5-3.5 3.5s-3.5-1.57-3.5-3.5 1.57-3.5 3.5-3.5 3.5 1.57 3.5 3.5zm0 13.55c0 1.93-1.57 3.5-3.5 3.5s-3.5-1.57-3.5-3.5 1.57-3.5 3.5-3.5 3.5 1.57 3.5 3.5zm0 13.55c0 1.93-1.57 3.5-3.5 3.5s-3.5-1.57-3.5-3.5 1.57-3.5 3.5-3.5 3.5 1.57 3.5 3.5zm0 13.55c0 1.93-1.57 3.5-3.5 3.5s-3.5-1.57-3.5-3.5 1.57-3.5 3.5-3.5 3.5 1.57 3.5 3.5zm0 13.55c0 1.93-1.57 3.5-3.5 3.5s-3.5-1.57-3.5-3.5 1.57-3.5 3.5-3.5 3.5 1.57 3.5 3.5zm0 13.55c0 1.93-1.57 3.5-3.5 3.5s-3.5-1.57-3.5-3.5 1.57-3.5 3.5-3.5 3.5 1.57 3.5 3.5zm0 13.55c0 1.93-1.57 3.5-3.5 3.5s-3.5-1.57-3.5-3.5 1.57-3.5 3.5-3.5 3.5 1.57 3.5 3.5zm0 13.55c0 1.93-1.57 3.5-3.5 3.5s-3.5-1.57-3.5-3.5 1.57-3.5 3.5-3.5 3.5 1.57 3.5 3.5zm0 13.55c0 1.93-1.57 3.5-3.5 3.5s-3.5-1.57-3.5-3.5 1.57-3.5 3.5-3.5 3.5 1.57 3.5 3.5z" fill="#333"/><path d="M1803.47 1637.6h-6.94v-3.6h6.94zM1803.47 1776.5h-6.94v-3.6h6.94z" stroke="#333" stroke-width=".05" fill="#333"/><path d="M2012.6 1900a11.4 11.4 0 0 0 11.4-11.4V1512a12 12 0 0 0-12-12h-24.5" stroke="#00c2a8" stroke-width="7" fill="none"/><path d="M1994.83 1900l14.26-4.63v9.27z" stroke="#00c2a8" stroke-width="7" fill="#00c2a8"/><path d="M1987.6 1503.47h-3.6v-6.94h3.6z" stroke="#00c2a8" stroke-width=".05" fill="#00c2a8"/><path d="M2060 1718a8 8 0 0 1 8-8h319a8 8 0 0 1 8 8v364a8 8 0 0 1-8 8h-319a8 8 0 0 1-8-8z" fill="none"/><g><use xlink:href="#aj" transform="matrix(1,0,0,1,2060,1710) translate(25.803703703703746 32.13333333333331)"/><use xlink:href="#ak" transform="matrix(1,0,0,1,2060,1710) translate(99.59814814814817 32.13333333333331)"/><use xlink:href="#al" transform="matrix(1,0,0,1,2060,1710) translate(120.15370370370371 32.13333333333331)"/><use xlink:href="#ac" transform="matrix(1,0,0,1,2060,1710) translate(218.75185185185182 32.13333333333331)"/><use xlink:href="#am" transform="matrix(1,0,0,1,2060,1710) translate(288.64074074074074 32.13333333333331)"/><use xlink:href="#an" transform="matrix(1,0,0,1,2060,1710) translate(15.046296296296333 61.733333333333306)"/><use xlink:href="#ad" transform="matrix(1,0,0,1,2060,1710) translate(123.03148148148148 61.733333333333306)"/><use xlink:href="#ao" transform="matrix(1,0,0,1,2060,1710) translate(184.5611111111111 61.733333333333306)"/><use xlink:href="#ap" transform="matrix(1,0,0,1,2060,1710) translate(228.27592592592592 61.733333333333306)"/><use xlink:href="#aq" transform="matrix(1,0,0,1,2060,1710) translate(9.530555555555594 91.3333333333333)"/><use xlink:href="#ar" transform="matrix(1,0,0,1,2060,1710) translate(88.8064814814815 91.3333333333333)"/><use xlink:href="#as" transform="matrix(1,0,0,1,2060,1710) translate(132.5212962962963 91.3333333333333)"/><use xlink:href="#at" transform="matrix(1,0,0,1,2060,1710) translate(239.2046296296296 91.3333333333333)"/><use xlink:href="#au" transform="matrix(1,0,0,1,2060,1710) translate(24.570370370370426 120.9333333333333)"/><use xlink:href="#av" transform="matrix(1,0,0,1,2060,1710) translate(101.17407407407411 120.9333333333333)"/><use xlink:href="#aw" transform="matrix(1,0,0,1,2060,1710) translate(195.52407407407406 120.9333333333333)"/><use xlink:href="#ax" transform="matrix(1,0,0,1,2060,1710) translate(265.4129629629629 120.9333333333333)"/><use xlink:href="#al" transform="matrix(1,0,0,1,2060,1710) translate(16.416666666666714 150.53333333333327)"/><use xlink:href="#ay" transform="matrix(1,0,0,1,2060,1710) translate(115.01481481481483 150.53333333333327)"/><use xlink:href="#az" transform="matrix(1,0,0,1,2060,1710) translate(194.29074074074074 150.53333333333327)"/><use xlink:href="#aA" transform="matrix(1,0,0,1,2060,1710) translate(295.42407407407404 150.53333333333327)"/><use xlink:href="#aB" transform="matrix(1,0,0,1,2060,1710) translate(2.7814814814815065 180.13333333333327)"/><use xlink:href="#aC" transform="matrix(1,0,0,1,2060,1710) translate(38.34259259259261 180.13333333333327)"/><use xlink:href="#aD" transform="matrix(1,0,0,1,2060,1710) translate(134.06296296296296 180.13333333333327)"/><use xlink:href="#aE" transform="matrix(1,0,0,1,2060,1710) translate(162.7722222222222 180.13333333333327)"/><use xlink:href="#aF" transform="matrix(1,0,0,1,2060,1710) translate(167.5 209.73333333333326)"/><use xlink:href="#aG" transform="matrix(1,0,0,1,2060,1710) translate(33.54629629629633 239.33333333333326)"/><use xlink:href="#aH" transform="matrix(1,0,0,1,2060,1710) translate(55.40370370370374 239.33333333333326)"/><use xlink:href="#aI" transform="matrix(1,0,0,1,2060,1710) translate(75.95925925925928 239.33333333333326)"/><use xlink:href="#aJ" transform="matrix(1,0,0,1,2060,1710) translate(155.30370370370372 239.33333333333326)"/><use xlink:href="#aK" transform="matrix(1,0,0,1,2060,1710) translate(182.7111111111111 239.33333333333326)"/><use xlink:href="#R" transform="matrix(1,0,0,1,2060,1710) translate(264.59074074074067 239.33333333333326)"/><use xlink:href="#as" transform="matrix(1,0,0,1,2060,1710) translate(45.81111111111113 268.9333333333333)"/><use xlink:href="#aL" transform="matrix(1,0,0,1,2060,1710) translate(152.49444444444444 268.9333333333333)"/><use xlink:href="#R" transform="matrix(1,0,0,1,2060,1710) translate(252.3259259259259 268.9333333333333)"/><use xlink:href="#al" transform="matrix(1,0,0,1,2060,1710) translate(26.62592592592597 298.5333333333333)"/><use xlink:href="#aM" transform="matrix(1,0,0,1,2060,1710) translate(125.22407407407408 298.5333333333333)"/><use xlink:href="#aN" transform="matrix(1,0,0,1,2060,1710) translate(164.82777777777778 298.5333333333333)"/><use xlink:href="#aO" transform="matrix(1,0,0,1,2060,1710) translate(216.69629629629628 298.5333333333333)"/><use xlink:href="#av" transform="matrix(1,0,0,1,2060,1710) translate(15.594444444444491 328.1333333333333)"/><use xlink:href="#aw" transform="matrix(1,0,0,1,2060,1710) translate(109.94444444444446 328.1333333333333)"/><use xlink:href="#aP" transform="matrix(1,0,0,1,2060,1710) translate(179.83333333333331 328.1333333333333)"/><use xlink:href="#aQ" transform="matrix(1,0,0,1,2060,1710) translate(201.69074074074072 328.1333333333333)"/><use xlink:href="#aR" transform="matrix(1,0,0,1,2060,1710) translate(255.13518518518515 328.1333333333333)"/><use xlink:href="#ay" transform="matrix(1,0,0,1,2060,1710) translate(116.28240740740742 357.73333333333335)"/><use xlink:href="#aS" transform="matrix(1,0,0,1,2060,1710) translate(195.55833333333334 357.73333333333335)"/></g><path d="M1320 1188a8 8 0 0 1 8-8h224a8 8 0 0 1 8 8v44a8 8 0 0 1-8 8h-224a8 8 0 0 1-8-8z" fill="none"/><g><use xlink:href="#aT" transform="matrix(1,0,0,1,1320,1180) translate(90.12685185185188 41.06666666666661)"/></g><path d="M2140 1648a8 8 0 0 1 8-8h224a8 8 0 0 1 8 8v44a8 8 0 0 1-8 8h-224a8 8 0 0 1-8-8z" fill="none"/><g><use xlink:href="#aU" transform="matrix(1,0,0,1,2140,1640) translate(90.12685185185188 41.06666666666661)"/></g><defs><path fill="#fff" d="M175 0L67-191c6 58 2 128 3 191H24v-248h59L193-55c-6-58-2-129-3-193h46V0h-61" id="aV"/><path fill="#fff" d="M110-194c64 0 96 36 96 99 0 64-35 99-97 99-61 0-95-36-95-99 0-62 34-99 96-99zm-1 164c35 0 45-28 45-65 0-40-10-65-43-65-34 0-45 26-45 65 0 36 10 65 43 65" id="aW"/><path fill="#fff" d="M14-72v-43h91v43H14" id="aX"/><path fill="#fff" d="M24 0v-248h52V0H24" id="aY"/><path fill="#fff" d="M24-248c93 1 206-16 204 79-1 75-69 88-152 82V0H24v-248zm52 121c47 0 100 7 100-41 0-47-54-39-100-39v80" id="aZ"/><g id="a"><use transform="matrix(0.09320987654320984,0,0,0.09320987654320984,0,0)" xlink:href="#aV"/><use transform="matrix(0.09320987654320984,0,0,0.09320987654320984,24.141358024691346,0)" xlink:href="#aW"/><use transform="matrix(0.09320987654320984,0,0,0.09320987654320984,44.5543209876543,0)" xlink:href="#aX"/><use transform="matrix(0.09320987654320984,0,0,0.09320987654320984,55.64629629629627,0)" xlink:href="#aY"/><use transform="matrix(0.09320987654320984,0,0,0.09320987654320984,64.96728395061726,0)" xlink:href="#aZ"/></g><path fill="#fff" d="M199 0l-22-63H83L61 0H9l90-248h61L250 0h-51zm-33-102l-36-108c-10 38-24 72-36 108h72" id="ba"/><path fill="#fff" d="M85 4C-2 5 27-109 22-190h50c7 57-23 150 33 157 60-5 35-97 40-157h50l1 190h-47c-2-12 1-28-3-38-12 25-28 42-61 42" id="bb"/><path fill="#fff" d="M115-3C79 11 28 4 28-45v-112H4v-33h27l15-45h31v45h36v33H77v99c-1 23 16 31 38 25v30" id="bc"/><g id="b"><use transform="matrix(0.09320987654320984,0,0,0.09320987654320984,0,0)" xlink:href="#ba"/><use transform="matrix(0.09320987654320984,0,0,0.09320987654320984,24.141358024691346,0)" xlink:href="#bb"/><use transform="matrix(0.09320987654320984,0,0,0.09320987654320984,44.5543209876543,0)" xlink:href="#bc"/><use transform="matrix(0.09320987654320984,0,0,0.09320987654320984,55.64629629629627,0)" xlink:href="#aW"/></g><path fill="#fff" d="M240-174c0 40-23 61-54 70L253 0h-59l-57-94H76V0H24v-248c93 4 217-23 216 74zM76-134c48-2 112 12 112-38 0-48-66-32-112-35v73" id="bd"/><path fill="#fff" d="M185-48c-13 30-37 53-82 52C43 2 14-33 14-96s30-98 90-98c62 0 83 45 84 108H66c0 31 8 55 39 56 18 0 30-7 34-22zm-45-69c5-46-57-63-70-21-2 6-4 13-4 21h74" id="be"/><path fill="#fff" d="M135-194c87-1 58 113 63 194h-50c-7-57 23-157-34-157-59 0-34 97-39 157H25l-1-190h47c2 12-1 28 3 38 12-26 28-41 61-42" id="bf"/><path fill="#fff" d="M231 0h-52l-39-155L100 0H48L-1-190h46L77-45c9-52 24-97 36-145h53l37 145 32-145h46" id="bg"/><path fill="#fff" d="M135-150c-39-12-60 13-60 57V0H25l-1-190h47c2 13-1 29 3 40 6-28 27-53 61-41v41" id="bh"/><g id="c"><use transform="matrix(0.09320987654320984,0,0,0.09320987654320984,0,0)" xlink:href="#bd"/><use transform="matrix(0.09320987654320984,0,0,0.09320987654320984,24.141358024691346,0)" xlink:href="#be"/><use transform="matrix(0.09320987654320984,0,0,0.09320987654320984,42.78333333333332,0)" xlink:href="#bf"/><use transform="matrix(0.09320987654320984,0,0,0.09320987654320984,63.19629629629627,0)" xlink:href="#be"/><use transform="matrix(0.09320987654320984,0,0,0.09320987654320984,81.83827160493823,0)" xlink:href="#bg"/><use transform="matrix(0.09320987654320984,0,0,0.09320987654320984,107.93703703703699,0)" xlink:href="#be"/><use transform="matrix(0.09320987654320984,0,0,0.09320987654320984,126.57901234567896,0)" xlink:href="#bh"/></g><path fill="#fff" d="M67-125c0 54 23 88 75 88 28 0 53-7 68-21v-34h-60v-39h108v91C232-14 192 4 140 4 58 4 20-42 15-125 8-236 126-280 215-234c19 10 29 26 37 47l-47 15c-11-23-29-39-63-39-53 1-75 33-75 86" id="bi"/><path fill="#fff" d="M238-95c0 69-44 99-111 99C63 4 22-25 22-93v-155h51v151c-1 38 19 59 55 60 90 1 49-130 58-211h52v153" id="bj"/><g id="d"><use transform="matrix(0.09320987654320984,0,0,0.09320987654320984,0,0)" xlink:href="#bi"/><use transform="matrix(0.09320987654320984,0,0,0.09320987654320984,26.098765432098755,0)" xlink:href="#bj"/><use transform="matrix(0.09320987654320984,0,0,0.09320987654320984,50.2401234567901,0)" xlink:href="#aY"/></g><path fill="#fff" d="M67-125c0 53 21 87 73 88 37 1 54-22 65-47l45 17C233-25 199 4 140 4 58 4 20-42 15-125 8-235 124-281 211-232c18 10 29 29 36 50l-46 12c-8-25-30-41-62-41-52 0-71 34-72 86" id="bk"/><path fill="#fff" d="M133-34C117-15 103 5 69 4 32 3 11-16 11-54c-1-60 55-63 116-61 1-26-3-47-28-47-18 1-26 9-28 27l-52-2c7-38 36-58 82-57s74 22 75 68l1 82c-1 14 12 18 25 15v27c-30 8-71 5-69-32zm-48 3c29 0 43-24 42-57-32 0-66-3-65 30 0 17 8 27 23 27" id="bl"/><path fill="#fff" d="M190-63c-7 42-38 67-86 67-59 0-84-38-90-98-12-110 154-137 174-36l-49 2c-2-19-15-32-35-32-30 0-35 28-38 64-6 74 65 87 74 30" id="bm"/><path fill="#fff" d="M114-157C55-157 80-60 75 0H25v-261h50l-1 109c12-26 28-41 61-42 86-1 58 113 63 194h-50c-7-57 23-157-34-157" id="bn"/><path fill="#fff" d="M25 0v-261h50V0H25" id="bo"/><g id="e"><use transform="matrix(0.19814814814814774,0,0,0.19814814814814774,0,0)" xlink:href="#bk"/><use transform="matrix(0.19814814814814774,0,0,0.19814814814814774,51.32037037037026,0)" xlink:href="#bl"/><use transform="matrix(0.19814814814814774,0,0,0.19814814814814774,90.94999999999982,0)" xlink:href="#bc"/><use transform="matrix(0.19814814814814774,0,0,0.19814814814814774,114.5296296296294,0)" xlink:href="#bm"/><use transform="matrix(0.19814814814814774,0,0,0.19814814814814774,154.15925925925893,0)" xlink:href="#bn"/><use transform="matrix(0.19814814814814774,0,0,0.19814814814814774,197.5537037037033,0)" xlink:href="#bl"/><use transform="matrix(0.19814814814814774,0,0,0.19814814814814774,237.18333333333285,0)" xlink:href="#bo"/><use transform="matrix(0.19814814814814774,0,0,0.19814814814814774,256.9981481481476,0)" xlink:href="#bo"/></g><path fill="#fff" d="M24 0v-248h195v40H76v63h132v40H76v65h150V0H24" id="bp"/><path fill="#fff" d="M220-157c-53 9-28 100-34 157h-49v-107c1-27-5-49-29-50C55-147 81-57 75 0H25l-1-190h47c2 12-1 28 3 38 10-53 101-56 108 0 13-22 24-43 59-42 82 1 51 116 57 194h-49v-107c-1-25-5-48-29-50" id="bq"/><path fill="#fff" d="M25-224v-37h50v37H25zM25 0v-190h50V0H25" id="br"/><g id="f"><use transform="matrix(0.19814814814814774,0,0,0.19814814814814774,0,0)" xlink:href="#bp"/><use transform="matrix(0.19814814814814774,0,0,0.19814814814814774,47.55555555555546,0)" xlink:href="#bq"/><use transform="matrix(0.19814814814814774,0,0,0.19814814814814774,110.96296296296273,0)" xlink:href="#bl"/><use transform="matrix(0.19814814814814774,0,0,0.19814814814814774,150.59259259259227,0)" xlink:href="#br"/><use transform="matrix(0.19814814814814774,0,0,0.19814814814814774,170.40740740740705,0)" xlink:href="#bo"/></g><path fill="#fff" d="M24-248c120-7 223 5 221 122C244-46 201 0 124 0H24v-248zM76-40c74 7 117-18 117-86 0-67-45-88-117-82v168" id="bs"/><g id="g"><use transform="matrix(0.06234567901234567,0,0,0.06234567901234567,0,0)" xlink:href="#bs"/><use transform="matrix(0.06234567901234567,0,0,0.06234567901234567,16.147530864197527,0)" xlink:href="#aW"/><use transform="matrix(0.06234567901234567,0,0,0.06234567901234567,29.80123456790123,0)" xlink:href="#bq"/><use transform="matrix(0.06234567901234567,0,0,0.06234567901234567,49.75185185185184,0)" xlink:href="#bl"/><use transform="matrix(0.06234567901234567,0,0,0.06234567901234567,62.22098765432097,0)" xlink:href="#br"/><use transform="matrix(0.06234567901234567,0,0,0.06234567901234567,68.45555555555553,0)" xlink:href="#bf"/></g><g id="h"><use transform="matrix(0.06234567901234567,0,0,0.06234567901234567,0,0)" xlink:href="#bp"/><use transform="matrix(0.06234567901234567,0,0,0.06234567901234567,14.96296296296296,0)" xlink:href="#bq"/><use transform="matrix(0.06234567901234567,0,0,0.06234567901234567,34.913580246913575,0)" xlink:href="#bl"/><use transform="matrix(0.06234567901234567,0,0,0.06234567901234567,47.38271604938271,0)" xlink:href="#br"/><use transform="matrix(0.06234567901234567,0,0,0.06234567901234567,53.61728395061728,0)" xlink:href="#bo"/></g><path d="M24 0v-248h195v40H76v63h132v40H76v65h150V0H24" id="bt"/><path d="M220-157c-53 9-28 100-34 157h-49v-107c1-27-5-49-29-50C55-147 81-57 75 0H25l-1-190h47c2 12-1 28 3 38 10-53 101-56 108 0 13-22 24-43 59-42 82 1 51 116 57 194h-49v-107c-1-25-5-48-29-50" id="bu"/><path d="M133-34C117-15 103 5 69 4 32 3 11-16 11-54c-1-60 55-63 116-61 1-26-3-47-28-47-18 1-26 9-28 27l-52-2c7-38 36-58 82-57s74 22 75 68l1 82c-1 14 12 18 25 15v27c-30 8-71 5-69-32zm-48 3c29 0 43-24 42-57-32 0-66-3-65 30 0 17 8 27 23 27" id="bv"/><path d="M25-224v-37h50v37H25zM25 0v-190h50V0H25" id="bw"/><path d="M25 0v-261h50V0H25" id="bx"/><path d="M137-138c1-29-70-34-71-4 15 46 118 7 119 86 1 83-164 76-172 9l43-7c4 19 20 25 44 25 33 8 57-30 24-41C81-84 22-81 20-136c-2-80 154-74 161-7" id="by"/><g id="i"><use transform="matrix(0.06234567901234567,0,0,0.06234567901234567,0,0)" xlink:href="#bt"/><use transform="matrix(0.06234567901234567,0,0,0.06234567901234567,14.96296296296296,0)" xlink:href="#bu"/><use transform="matrix(0.06234567901234567,0,0,0.06234567901234567,34.913580246913575,0)" xlink:href="#bv"/><use transform="matrix(0.06234567901234567,0,0,0.06234567901234567,47.38271604938271,0)" xlink:href="#bw"/><use transform="matrix(0.06234567901234567,0,0,0.06234567901234567,53.61728395061728,0)" xlink:href="#bx"/><use transform="matrix(0.06234567901234567,0,0,0.06234567901234567,59.85185185185185,0)" xlink:href="#by"/></g><path d="M135-150c-39-12-60 13-60 57V0H25l-1-190h47c2 13-1 29 3 40 6-28 27-53 61-41v41" id="bz"/><path d="M185-48c-13 30-37 53-82 52C43 2 14-33 14-96s30-98 90-98c62 0 83 45 84 108H66c0 31 8 55 39 56 18 0 30-7 34-22zm-45-69c5-46-57-63-70-21-2 6-4 13-4 21h74" id="bA"/><path d="M195-6C206 82 75 100 31 46c-4-6-6-13-8-21l49-6c3 16 16 24 34 25 40 0 42-37 40-79-11 22-30 35-61 35-53 0-70-43-70-97 0-56 18-96 73-97 30 0 46 14 59 34l2-30h47zm-90-29c32 0 41-27 41-63 0-35-9-62-40-62-32 0-39 29-40 63 0 36 9 62 39 62" id="bB"/><path d="M115-3C79 11 28 4 28-45v-112H4v-33h27l15-45h31v45h36v33H77v99c-1 23 16 31 38 25v30" id="bC"/><path d="M88-194c31-1 46 15 58 34l-1-101h50l1 261h-48c-2-10 0-23-3-31C134-8 116 4 84 4 32 4 16-41 15-95c0-56 19-97 73-99zm17 164c33 0 40-30 41-66 1-37-9-64-41-64s-38 30-39 65c0 43 13 65 39 65" id="bD"/><g id="j"><use transform="matrix(0.06234567901234567,0,0,0.06234567901234567,0,0)" xlink:href="#bz"/><use transform="matrix(0.06234567901234567,0,0,0.06234567901234567,8.728395061728394,0)" xlink:href="#bA"/><use transform="matrix(0.06234567901234567,0,0,0.06234567901234567,21.197530864197525,0)" xlink:href="#bB"/><use transform="matrix(0.06234567901234567,0,0,0.06234567901234567,34.85123456790123,0)" xlink:href="#bw"/><use transform="matrix(0.06234567901234567,0,0,0.06234567901234567,41.0858024691358,0)" xlink:href="#by"/><use transform="matrix(0.06234567901234567,0,0,0.06234567901234567,53.55493827160493,0)" xlink:href="#bC"/><use transform="matrix(0.06234567901234567,0,0,0.06234567901234567,60.97407407407407,0)" xlink:href="#bA"/><use transform="matrix(0.06234567901234567,0,0,0.06234567901234567,73.4432098765432,0)" xlink:href="#bz"/><use transform="matrix(0.06234567901234567,0,0,0.06234567901234567,82.17160493827159,0)" xlink:href="#bA"/><use transform="matrix(0.06234567901234567,0,0,0.06234567901234567,94.64074074074071,0)" xlink:href="#bD"/></g><path d="M231 0h-52l-39-155L100 0H48L-1-190h46L77-45c9-52 24-97 36-145h53l37 145 32-145h46" id="bE"/><path d="M114-157C55-157 80-60 75 0H25v-261h50l-1 109c12-26 28-41 61-42 86-1 58 113 63 194h-50c-7-57 23-157-34-157" id="bF"/><g id="k"><use transform="matrix(0.06234567901234567,0,0,0.06234567901234567,0,0)" xlink:href="#bE"/><use transform="matrix(0.06234567901234567,0,0,0.06234567901234567,17.456790123456788,0)" xlink:href="#bw"/><use transform="matrix(0.06234567901234567,0,0,0.06234567901234567,23.691358024691354,0)" xlink:href="#bC"/><use transform="matrix(0.06234567901234567,0,0,0.06234567901234567,31.11049382716049,0)" xlink:href="#bF"/></g><path d="M175 0L67-191c6 58 2 128 3 191H24v-248h59L193-55c-6-58-2-129-3-193h46V0h-61" id="bG"/><path d="M110-194c64 0 96 36 96 99 0 64-35 99-97 99-61 0-95-36-95-99 0-62 34-99 96-99zm-1 164c35 0 45-28 45-65 0-40-10-65-43-65-34 0-45 26-45 65 0 36 10 65 43 65" id="bH"/><path d="M14-72v-43h91v43H14" id="bI"/><path d="M24 0v-248h52V0H24" id="bJ"/><path d="M24-248c93 1 206-16 204 79-1 75-69 88-152 82V0H24v-248zm52 121c47 0 100 7 100-41 0-47-54-39-100-39v80" id="bK"/><g id="l"><use transform="matrix(0.06234567901234567,0,0,0.06234567901234567,0,0)" xlink:href="#bG"/><use transform="matrix(0.06234567901234567,0,0,0.06234567901234567,16.147530864197527,0)" xlink:href="#bH"/><use transform="matrix(0.06234567901234567,0,0,0.06234567901234567,29.80123456790123,0)" xlink:href="#bI"/><use transform="matrix(0.06234567901234567,0,0,0.06234567901234567,37.22037037037036,0)" xlink:href="#bJ"/><use transform="matrix(0.06234567901234567,0,0,0.06234567901234567,43.45493827160493,0)" xlink:href="#bK"/></g><g id="m"><use transform="matrix(0.06234567901234567,0,0,0.06234567901234567,0,0)" xlink:href="#bv"/><use transform="matrix(0.06234567901234567,0,0,0.06234567901234567,12.469135802469133,0)" xlink:href="#bz"/><use transform="matrix(0.06234567901234567,0,0,0.06234567901234567,21.197530864197525,0)" xlink:href="#bA"/></g><path d="M121-226c-27-7-43 5-38 36h38v33H83V0H34v-157H6v-33h28c-9-59 32-81 87-68v32" id="bL"/><g id="n"><use transform="matrix(0.06234567901234567,0,0,0.06234567901234567,0,0)" xlink:href="#bL"/><use transform="matrix(0.06234567901234567,0,0,0.06234567901234567,7.4191358024691345,0)" xlink:href="#bH"/><use transform="matrix(0.06234567901234567,0,0,0.06234567901234567,21.072839506172837,0)" xlink:href="#bz"/><use transform="matrix(0.06234567901234567,0,0,0.06234567901234567,29.801234567901233,0)" xlink:href="#bE"/><use transform="matrix(0.06234567901234567,0,0,0.06234567901234567,47.25802469135802,0)" xlink:href="#bv"/><use transform="matrix(0.06234567901234567,0,0,0.06234567901234567,59.72716049382715,0)" xlink:href="#bz"/><use transform="matrix(0.06234567901234567,0,0,0.06234567901234567,68.45555555555555,0)" xlink:href="#bD"/><use transform="matrix(0.06234567901234567,0,0,0.06234567901234567,82.10925925925925,0)" xlink:href="#bA"/><use transform="matrix(0.06234567901234567,0,0,0.06234567901234567,94.57839506172837,0)" xlink:href="#bD"/></g><g id="o"><use transform="matrix(0.06234567901234567,0,0,0.06234567901234567,0,0)" xlink:href="#bC"/><use transform="matrix(0.06234567901234567,0,0,0.06234567901234567,7.4191358024691345,0)" xlink:href="#bH"/></g><use transform="matrix(0.06234567901234567,0,0,0.06234567901234567,0,0)" xlink:href="#bv" id="p"/><path d="M190-63c-7 42-38 67-86 67-59 0-84-38-90-98-12-110 154-137 174-36l-49 2c-2-19-15-32-35-32-30 0-35 28-38 64-6 74 65 87 74 30" id="bM"/><g id="q"><use transform="matrix(0.06234567901234567,0,0,0.06234567901234567,0,0)" xlink:href="#bM"/><use transform="matrix(0.06234567901234567,0,0,0.06234567901234567,12.469135802469133,0)" xlink:href="#bv"/><use transform="matrix(0.06234567901234567,0,0,0.06234567901234567,24.938271604938265,0)" xlink:href="#bC"/><use transform="matrix(0.06234567901234567,0,0,0.06234567901234567,32.3574074074074,0)" xlink:href="#bM"/><use transform="matrix(0.06234567901234567,0,0,0.06234567901234567,44.82654320987653,0)" xlink:href="#bF"/><use transform="matrix(0.06234567901234567,0,0,0.06234567901234567,58.48024691358023,0)" xlink:href="#bI"/><use transform="matrix(0.06234567901234567,0,0,0.06234567901234567,65.89938271604936,0)" xlink:href="#bv"/><use transform="matrix(0.06234567901234567,0,0,0.06234567901234567,78.3685185185185,0)" xlink:href="#bx"/><use transform="matrix(0.06234567901234567,0,0,0.06234567901234567,84.60308641975307,0)" xlink:href="#bx"/></g><g id="r"><use transform="matrix(0.06234567901234567,0,0,0.06234567901234567,0,0)" xlink:href="#bA"/><use transform="matrix(0.06234567901234567,0,0,0.06234567901234567,12.469135802469133,0)" xlink:href="#bu"/><use transform="matrix(0.06234567901234567,0,0,0.06234567901234567,32.419753086419746,0)" xlink:href="#bv"/><use transform="matrix(0.06234567901234567,0,0,0.06234567901234567,44.88888888888888,0)" xlink:href="#bw"/><use transform="matrix(0.06234567901234567,0,0,0.06234567901234567,51.12345679012344,0)" xlink:href="#bx"/></g><path d="M67-93c0 74 22 123 53 168H70C40 30 18-18 18-93s22-123 52-168h50c-32 44-53 94-53 168" id="bN"/><path d="M182 0l-62-99L58 0H3l86-130-79-118h55l55 88 55-88h55l-75 118L237 0h-55" id="bO"/><path d="M136-208V0H84v-208H4v-40h212v40h-80" id="bP"/><path d="M240-174c0 40-23 61-54 70L253 0h-59l-57-94H76V0H24v-248c93 4 217-23 216 74zM76-134c48-2 112 12 112-38 0-48-66-32-112-35v73" id="bQ"/><path d="M199 0l-22-63H83L61 0H9l90-248h61L250 0h-51zm-33-102l-36-108c-10 38-24 72-36 108h72" id="bR"/><path d="M24 0v-248h52v208h133V0H24" id="bS"/><g id="s"><use transform="matrix(0.06234567901234567,0,0,0.06234567901234567,0,0)" xlink:href="#bN"/><use transform="matrix(0.06234567901234567,0,0,0.06234567901234567,7.4191358024691345,0)" xlink:href="#bt"/><use transform="matrix(0.06234567901234567,0,0,0.06234567901234567,22.382098765432094,0)" xlink:href="#bO"/><use transform="matrix(0.06234567901234567,0,0,0.06234567901234567,37.34506172839505,0)" xlink:href="#bP"/><use transform="matrix(0.06234567901234567,0,0,0.06234567901234567,50.99876543209875,0)" xlink:href="#bt"/><use transform="matrix(0.06234567901234567,0,0,0.06234567901234567,65.96172839506171,0)" xlink:href="#bQ"/><use transform="matrix(0.06234567901234567,0,0,0.06234567901234567,82.10925925925923,0)" xlink:href="#bG"/><use transform="matrix(0.06234567901234567,0,0,0.06234567901234567,98.25679012345677,0)" xlink:href="#bR"/><use transform="matrix(0.06234567901234567,0,0,0.06234567901234567,114.4043209876543,0)" xlink:href="#bS"/></g><path d="M169-182c-1-43-94-46-97-3 18 66 151 10 154 114 3 95-165 93-204 36-6-8-10-19-12-30l50-8c3 46 112 56 116 5-17-69-150-10-154-114-4-87 153-88 188-35 5 8 8 18 10 28" id="bT"/><path d="M238-95c0 69-44 99-111 99C63 4 22-25 22-93v-155h51v151c-1 38 19 59 55 60 90 1 49-130 58-211h52v153" id="bU"/><g id="t"><use transform="matrix(0.06234567901234567,0,0,0.06234567901234567,0,0)" xlink:href="#bT"/><use transform="matrix(0.06234567901234567,0,0,0.06234567901234567,14.96296296296296,0)" xlink:href="#bt"/><use transform="matrix(0.06234567901234567,0,0,0.06234567901234567,29.92592592592592,0)" xlink:href="#bP"/><use transform="matrix(0.06234567901234567,0,0,0.06234567901234567,43.57962962962962,0)" xlink:href="#bU"/><use transform="matrix(0.06234567901234567,0,0,0.06234567901234567,59.72716049382715,0)" xlink:href="#bK"/></g><path d="M140-251c80 0 125 45 125 126 0 70-33 111-92 124 6 28 34 38 68 31l-1 36C177 83 129 55 120 2 51-6 15-50 15-125c0-81 44-126 125-126zm-1 214c52 0 73-35 73-88 0-50-21-86-72-86-52 0-73 35-73 86s22 88 72 88" id="bV"/><path d="M24-248c120-7 223 5 221 122C244-46 201 0 124 0H24v-248zM76-40c74 7 117-18 117-86 0-67-45-88-117-82v168" id="bW"/><g id="u"><use transform="matrix(0.06234567901234567,0,0,0.06234567901234567,0,0)" xlink:href="#bQ"/><use transform="matrix(0.06234567901234567,0,0,0.06234567901234567,16.147530864197527,0)" xlink:href="#bt"/><use transform="matrix(0.06234567901234567,0,0,0.06234567901234567,31.11049382716049,0)" xlink:href="#bV"/><use transform="matrix(0.06234567901234567,0,0,0.06234567901234567,48.56728395061728,0)" xlink:href="#bU"/><use transform="matrix(0.06234567901234567,0,0,0.06234567901234567,64.71481481481482,0)" xlink:href="#bJ"/><use transform="matrix(0.06234567901234567,0,0,0.06234567901234567,70.94938271604939,0)" xlink:href="#bQ"/><use transform="matrix(0.06234567901234567,0,0,0.06234567901234567,87.0969135802469,0)" xlink:href="#bt"/><use transform="matrix(0.06234567901234567,0,0,0.06234567901234567,102.05987654320987,0)" xlink:href="#bW"/></g><path d="M76-208v77h127v40H76V0H24v-248h183v40H76" id="bX"/><path d="M140-251c80 0 125 45 125 126S219 4 139 4C58 4 15-44 15-125s44-126 125-126zm-1 214c52 0 73-35 73-88 0-50-21-86-72-86-52 0-73 35-73 86s22 88 72 88" id="bY"/><g id="v"><use transform="matrix(0.06234567901234567,0,0,0.06234567901234567,0,0)" xlink:href="#bX"/><use transform="matrix(0.06234567901234567,0,0,0.06234567901234567,13.653703703703702,0)" xlink:href="#bY"/><use transform="matrix(0.06234567901234567,0,0,0.06234567901234567,31.11049382716049,0)" xlink:href="#bQ"/></g><g id="w"><use transform="matrix(0.06234567901234567,0,0,0.06234567901234567,0,0)" xlink:href="#bJ"/><use transform="matrix(0.06234567901234567,0,0,0.06234567901234567,6.234567901234566,0)" xlink:href="#bP"/></g><g id="x"><use transform="matrix(0.06234567901234567,0,0,0.06234567901234567,0,0)" xlink:href="#bP"/><use transform="matrix(0.06234567901234567,0,0,0.06234567901234567,13.217283950617283,0)" xlink:href="#bY"/></g><path d="M275 0h-61l-44-196L126 0H64L0-248h53L97-49l45-199h58l43 199 44-199h52" id="bZ"/><path d="M195 0l-88-114-31 24V0H24v-248h52v113l112-113h60L142-143 257 0h-62" id="ca"/><path d="M102-93c0 74-22 123-52 168H0C30 29 54-18 53-93c0-74-22-123-53-168h50c30 45 52 94 52 168" id="cb"/><g id="y"><use transform="matrix(0.06234567901234567,0,0,0.06234567901234567,0,0)" xlink:href="#bZ"/><use transform="matrix(0.06234567901234567,0,0,0.06234567901234567,21.135185185185183,0)" xlink:href="#bY"/><use transform="matrix(0.06234567901234567,0,0,0.06234567901234567,38.59197530864197,0)" xlink:href="#bQ"/><use transform="matrix(0.06234567901234567,0,0,0.06234567901234567,54.7395061728395,0)" xlink:href="#ca"/><use transform="matrix(0.06234567901234567,0,0,0.06234567901234567,70.88703703703703,0)" xlink:href="#cb"/></g><path d="M85 4C-2 5 27-109 22-190h50c7 57-23 150 33 157 60-5 35-97 40-157h50l1 190h-47c-2-12 1-28-3-38-12 25-28 42-61 42" id="cc"/><path d="M135-194c87-1 58 113 63 194h-50c-7-57 23-157-34-157-59 0-34 97-39 157H25l-1-190h47c2 12-1 28 3 38 12-26 28-41 61-42" id="cd"/><path d="M24 0v-54h51V0H24" id="ce"/><path d="M25-224v-37h50v37H25zM75 22c2 45-34 59-81 51V38c22 5 31-5 31-27v-201h50V22" id="cf"/><g id="z"><use transform="matrix(0.06234567901234567,0,0,0.06234567901234567,0,0)" xlink:href="#bR"/><use transform="matrix(0.06234567901234567,0,0,0.06234567901234567,16.147530864197527,0)" xlink:href="#bM"/><use transform="matrix(0.06234567901234567,0,0,0.06234567901234567,28.61666666666666,0)" xlink:href="#bM"/><use transform="matrix(0.06234567901234567,0,0,0.06234567901234567,41.08580246913579,0)" xlink:href="#bH"/><use transform="matrix(0.06234567901234567,0,0,0.06234567901234567,54.7395061728395,0)" xlink:href="#cc"/><use transform="matrix(0.06234567901234567,0,0,0.06234567901234567,68.3932098765432,0)" xlink:href="#cd"/><use transform="matrix(0.06234567901234567,0,0,0.06234567901234567,82.0469135802469,0)" xlink:href="#bC"/><use transform="matrix(0.06234567901234567,0,0,0.06234567901234567,89.46604938271602,0)" xlink:href="#by"/><use transform="matrix(0.06234567901234567,0,0,0.06234567901234567,101.93518518518516,0)" xlink:href="#ce"/><use transform="matrix(0.06234567901234567,0,0,0.06234567901234567,108.16975308641973,0)" xlink:href="#cf"/><use transform="matrix(0.06234567901234567,0,0,0.06234567901234567,114.4043209876543,0)" xlink:href="#by"/><use transform="matrix(0.06234567901234567,0,0,0.06234567901234567,126.87345679012344,0)" xlink:href="#bH"/><use transform="matrix(0.06234567901234567,0,0,0.06234567901234567,140.52716049382715,0)" xlink:href="#cd"/></g><path fill="#635dff" d="M23 0v-37h61v-169l-59 37v-38l62-41h46v211h57V0H23" id="cg"/><use transform="matrix(0.06234567901234567,0,0,0.06234567901234567,0,0)" xlink:href="#cg" id="A"/><path fill="#635dff" d="M67-125c0 53 21 87 73 88 37 1 54-22 65-47l45 17C233-25 199 4 140 4 58 4 20-42 15-125 8-235 124-281 211-232c18 10 29 29 36 50l-46 12c-8-25-30-41-62-41-52 0-71 34-72 86" id="ch"/><path fill="#635dff" d="M133-34C117-15 103 5 69 4 32 3 11-16 11-54c-1-60 55-63 116-61 1-26-3-47-28-47-18 1-26 9-28 27l-52-2c7-38 36-58 82-57s74 22 75 68l1 82c-1 14 12 18 25 15v27c-30 8-71 5-69-32zm-48 3c29 0 43-24 42-57-32 0-66-3-65 30 0 17 8 27 23 27" id="ci"/><path fill="#635dff" d="M115-3C79 11 28 4 28-45v-112H4v-33h27l15-45h31v45h36v33H77v99c-1 23 16 31 38 25v30" id="cj"/><path fill="#635dff" d="M190-63c-7 42-38 67-86 67-59 0-84-38-90-98-12-110 154-137 174-36l-49 2c-2-19-15-32-35-32-30 0-35 28-38 64-6 74 65 87 74 30" id="ck"/><path fill="#635dff" d="M114-157C55-157 80-60 75 0H25v-261h50l-1 109c12-26 28-41 61-42 86-1 58 113 63 194h-50c-7-57 23-157-34-157" id="cl"/><path fill="#635dff" d="M25 0v-261h50V0H25" id="cm"/><g id="B"><use transform="matrix(0.06234567901234567,0,0,0.06234567901234567,0,0)" xlink:href="#ch"/><use transform="matrix(0.06234567901234567,0,0,0.06234567901234567,16.147530864197527,0)" xlink:href="#ci"/><use transform="matrix(0.06234567901234567,0,0,0.06234567901234567,28.61666666666666,0)" xlink:href="#cj"/><use transform="matrix(0.06234567901234567,0,0,0.06234567901234567,36.035802469135795,0)" xlink:href="#ck"/><use transform="matrix(0.06234567901234567,0,0,0.06234567901234567,48.50493827160493,0)" xlink:href="#cl"/><use transform="matrix(0.06234567901234567,0,0,0.06234567901234567,62.158641975308626,0)" xlink:href="#ci"/><use transform="matrix(0.06234567901234567,0,0,0.06234567901234567,74.62777777777777,0)" xlink:href="#cm"/><use transform="matrix(0.06234567901234567,0,0,0.06234567901234567,80.86234567901234,0)" xlink:href="#cm"/></g><path fill="#635dff" d="M185-48c-13 30-37 53-82 52C43 2 14-33 14-96s30-98 90-98c62 0 83 45 84 108H66c0 31 8 55 39 56 18 0 30-7 34-22zm-45-69c5-46-57-63-70-21-2 6-4 13-4 21h74" id="cn"/><path fill="#635dff" d="M220-157c-53 9-28 100-34 157h-49v-107c1-27-5-49-29-50C55-147 81-57 75 0H25l-1-190h47c2 12-1 28 3 38 10-53 101-56 108 0 13-22 24-43 59-42 82 1 51 116 57 194h-49v-107c-1-25-5-48-29-50" id="co"/><path fill="#635dff" d="M25-224v-37h50v37H25zM25 0v-190h50V0H25" id="cp"/><g id="C"><use transform="matrix(0.06234567901234567,0,0,0.06234567901234567,0,0)" xlink:href="#cn"/><use transform="matrix(0.06234567901234567,0,0,0.06234567901234567,12.469135802469133,0)" xlink:href="#co"/><use transform="matrix(0.06234567901234567,0,0,0.06234567901234567,32.419753086419746,0)" xlink:href="#ci"/><use transform="matrix(0.06234567901234567,0,0,0.06234567901234567,44.88888888888888,0)" xlink:href="#cp"/><use transform="matrix(0.06234567901234567,0,0,0.06234567901234567,51.12345679012344,0)" xlink:href="#cm"/></g><path fill="#008573" d="M182 0l-62-99L58 0H3l86-130-79-118h55l55 88 55-88h55l-75 118L237 0h-55" id="cq"/><use transform="matrix(0.06234567901234567,0,0,0.06234567901234567,0,0)" xlink:href="#cq" id="D"/><path fill="#008573" d="M135-194c87-1 58 113 63 194h-50c-7-57 23-157-34-157-59 0-34 97-39 157H25l-1-190h47c2 12-1 28 3 38 12-26 28-41 61-42" id="cr"/><path fill="#008573" d="M85 4C-2 5 27-109 22-190h50c7 57-23 150 33 157 60-5 35-97 40-157h50l1 190h-47c-2-12 1-28-3-38-12 25-28 42-61 42" id="cs"/><path fill="#008573" d="M220-157c-53 9-28 100-34 157h-49v-107c1-27-5-49-29-50C55-147 81-57 75 0H25l-1-190h47c2 12-1 28 3 38 10-53 101-56 108 0 13-22 24-43 59-42 82 1 51 116 57 194h-49v-107c-1-25-5-48-29-50" id="ct"/><path fill="#008573" d="M135-194c52 0 70 43 70 98 0 56-19 99-73 100-30 1-46-15-58-35L72 0H24l1-261h50v104c11-23 29-37 60-37zM114-30c31 0 40-27 40-66 0-37-7-63-39-63s-41 28-41 65c0 36 8 64 40 64" id="cu"/><path fill="#008573" d="M185-48c-13 30-37 53-82 52C43 2 14-33 14-96s30-98 90-98c62 0 83 45 84 108H66c0 31 8 55 39 56 18 0 30-7 34-22zm-45-69c5-46-57-63-70-21-2 6-4 13-4 21h74" id="cv"/><path fill="#008573" d="M135-150c-39-12-60 13-60 57V0H25l-1-190h47c2 13-1 29 3 40 6-28 27-53 61-41v41" id="cw"/><g id="E"><use transform="matrix(0.06234567901234567,0,0,0.06234567901234567,0,0)" xlink:href="#cr"/><use transform="matrix(0.06234567901234567,0,0,0.06234567901234567,13.653703703703702,0)" xlink:href="#cs"/><use transform="matrix(0.06234567901234567,0,0,0.06234567901234567,27.307407407407403,0)" xlink:href="#ct"/><use transform="matrix(0.06234567901234567,0,0,0.06234567901234567,47.25802469135802,0)" xlink:href="#cu"/><use transform="matrix(0.06234567901234567,0,0,0.06234567901234567,60.911728395061715,0)" xlink:href="#cv"/><use transform="matrix(0.06234567901234567,0,0,0.06234567901234567,73.38086419753085,0)" xlink:href="#cw"/></g><path fill="#008573" d="M110-194c64 0 96 36 96 99 0 64-35 99-97 99-61 0-95-36-95-99 0-62 34-99 96-99zm-1 164c35 0 45-28 45-65 0-40-10-65-43-65-34 0-45 26-45 65 0 36 10 65 43 65" id="cx"/><path fill="#008573" d="M121-226c-27-7-43 5-38 36h38v33H83V0H34v-157H6v-33h28c-9-59 32-81 87-68v32" id="cy"/><g id="F"><use transform="matrix(0.06234567901234567,0,0,0.06234567901234567,0,0)" xlink:href="#cx"/><use transform="matrix(0.06234567901234567,0,0,0.06234567901234567,13.653703703703702,0)" xlink:href="#cy"/></g><path fill="#008573" d="M175 0L67-191c6 58 2 128 3 191H24v-248h59L193-55c-6-58-2-129-3-193h46V0h-61" id="cz"/><path fill="#008573" d="M14-72v-43h91v43H14" id="cA"/><path fill="#008573" d="M24 0v-248h52V0H24" id="cB"/><path fill="#008573" d="M24-248c93 1 206-16 204 79-1 75-69 88-152 82V0H24v-248zm52 121c47 0 100 7 100-41 0-47-54-39-100-39v80" id="cC"/><g id="G"><use transform="matrix(0.06234567901234567,0,0,0.06234567901234567,0,0)" xlink:href="#cz"/><use transform="matrix(0.06234567901234567,0,0,0.06234567901234567,16.147530864197527,0)" xlink:href="#cx"/><use transform="matrix(0.06234567901234567,0,0,0.06234567901234567,29.80123456790123,0)" xlink:href="#cA"/><use transform="matrix(0.06234567901234567,0,0,0.06234567901234567,37.22037037037036,0)" xlink:href="#cB"/><use transform="matrix(0.06234567901234567,0,0,0.06234567901234567,43.45493827160493,0)" xlink:href="#cC"/></g><path fill="#008573" d="M25 0v-261h50V0H25" id="cD"/><path fill="#008573" d="M195-6C206 82 75 100 31 46c-4-6-6-13-8-21l49-6c3 16 16 24 34 25 40 0 42-37 40-79-11 22-30 35-61 35-53 0-70-43-70-97 0-56 18-96 73-97 30 0 46 14 59 34l2-30h47zm-90-29c32 0 41-27 41-63 0-35-9-62-40-62-32 0-39 29-40 63 0 36 9 62 39 62" id="cE"/><path fill="#008573" d="M25-224v-37h50v37H25zM25 0v-190h50V0H25" id="cF"/><path fill="#008573" d="M137-138c1-29-70-34-71-4 15 46 118 7 119 86 1 83-164 76-172 9l43-7c4 19 20 25 44 25 33 8 57-30 24-41C81-84 22-81 20-136c-2-80 154-74 161-7" id="cG"/><g id="H"><use transform="matrix(0.06234567901234567,0,0,0.06234567901234567,0,0)" xlink:href="#cD"/><use transform="matrix(0.06234567901234567,0,0,0.06234567901234567,6.234567901234566,0)" xlink:href="#cx"/><use transform="matrix(0.06234567901234567,0,0,0.06234567901234567,19.888271604938268,0)" xlink:href="#cE"/><use transform="matrix(0.06234567901234567,0,0,0.06234567901234567,33.541975308641966,0)" xlink:href="#cF"/><use transform="matrix(0.06234567901234567,0,0,0.06234567901234567,39.776543209876536,0)" xlink:href="#cr"/><use transform="matrix(0.06234567901234567,0,0,0.06234567901234567,53.430246913580234,0)" xlink:href="#cG"/></g><path fill="#008573" d="M231 0h-52l-39-155L100 0H48L-1-190h46L77-45c9-52 24-97 36-145h53l37 145 32-145h46" id="cH"/><path fill="#008573" d="M114-157C55-157 80-60 75 0H25v-261h50l-1 109c12-26 28-41 61-42 86-1 58 113 63 194h-50c-7-57 23-157-34-157" id="cI"/><g id="I"><use transform="matrix(0.06234567901234567,0,0,0.06234567901234567,0,0)" xlink:href="#cH"/><use transform="matrix(0.06234567901234567,0,0,0.06234567901234567,17.456790123456788,0)" xlink:href="#cI"/><use transform="matrix(0.06234567901234567,0,0,0.06234567901234567,31.11049382716049,0)" xlink:href="#cx"/><use transform="matrix(0.06234567901234567,0,0,0.06234567901234567,44.764197530864195,0)" xlink:href="#cG"/><use transform="matrix(0.06234567901234567,0,0,0.06234567901234567,57.23333333333333,0)" xlink:href="#cv"/></g><path fill="#008573" d="M133-34C117-15 103 5 69 4 32 3 11-16 11-54c-1-60 55-63 116-61 1-26-3-47-28-47-18 1-26 9-28 27l-52-2c7-38 36-58 82-57s74 22 75 68l1 82c-1 14 12 18 25 15v27c-30 8-71 5-69-32zm-48 3c29 0 43-24 42-57-32 0-66-3-65 30 0 17 8 27 23 27" id="cJ"/><g id="J"><use transform="matrix(0.06234567901234567,0,0,0.06234567901234567,0,0)" xlink:href="#cv"/><use transform="matrix(0.06234567901234567,0,0,0.06234567901234567,12.469135802469133,0)" xlink:href="#ct"/><use transform="matrix(0.06234567901234567,0,0,0.06234567901234567,32.419753086419746,0)" xlink:href="#cJ"/><use transform="matrix(0.06234567901234567,0,0,0.06234567901234567,44.88888888888888,0)" xlink:href="#cF"/><use transform="matrix(0.06234567901234567,0,0,0.06234567901234567,51.12345679012344,0)" xlink:href="#cD"/><use transform="matrix(0.06234567901234567,0,0,0.06234567901234567,57.35802469135801,0)" xlink:href="#cG"/></g><path fill="#008573" d="M190-63c-7 42-38 67-86 67-59 0-84-38-90-98-12-110 154-137 174-36l-49 2c-2-19-15-32-35-32-30 0-35 28-38 64-6 74 65 87 74 30" id="cK"/><path fill="#008573" d="M115-3C79 11 28 4 28-45v-112H4v-33h27l15-45h31v45h36v33H77v99c-1 23 16 31 38 25v30" id="cL"/><path fill="#008573" d="M88-194c31-1 46 15 58 34l-1-101h50l1 261h-48c-2-10 0-23-3-31C134-8 116 4 84 4 32 4 16-41 15-95c0-56 19-97 73-99zm17 164c33 0 40-30 41-66 1-37-9-64-41-64s-38 30-39 65c0 43 13 65 39 65" id="cM"/><g id="K"><use transform="matrix(0.06234567901234567,0,0,0.06234567901234567,0,0)" xlink:href="#cJ"/><use transform="matrix(0.06234567901234567,0,0,0.06234567901234567,12.469135802469133,0)" xlink:href="#cG"/><use transform="matrix(0.06234567901234567,0,0,0.06234567901234567,24.938271604938265,0)" xlink:href="#cG"/><use transform="matrix(0.06234567901234567,0,0,0.06234567901234567,37.4074074074074,0)" xlink:href="#cx"/><use transform="matrix(0.06234567901234567,0,0,0.06234567901234567,51.0611111111111,0)" xlink:href="#cK"/><use transform="matrix(0.06234567901234567,0,0,0.06234567901234567,63.530246913580235,0)" xlink:href="#cF"/><use transform="matrix(0.06234567901234567,0,0,0.06234567901234567,69.7648148148148,0)" xlink:href="#cJ"/><use transform="matrix(0.06234567901234567,0,0,0.06234567901234567,82.23395061728394,0)" xlink:href="#cL"/><use transform="matrix(0.06234567901234567,0,0,0.06234567901234567,89.65308641975307,0)" xlink:href="#cv"/><use transform="matrix(0.06234567901234567,0,0,0.06234567901234567,102.1222222222222,0)" xlink:href="#cM"/></g><g id="L"><use transform="matrix(0.06234567901234567,0,0,0.06234567901234567,0,0)" xlink:href="#cH"/><use transform="matrix(0.06234567901234567,0,0,0.06234567901234567,17.456790123456788,0)" xlink:href="#cF"/><use transform="matrix(0.06234567901234567,0,0,0.06234567901234567,23.691358024691354,0)" xlink:href="#cL"/><use transform="matrix(0.06234567901234567,0,0,0.06234567901234567,31.11049382716049,0)" xlink:href="#cI"/></g><g id="M"><use transform="matrix(0.06234567901234567,0,0,0.06234567901234567,0,0)" xlink:href="#cL"/><use transform="matrix(0.06234567901234567,0,0,0.06234567901234567,7.4191358024691345,0)" xlink:href="#cI"/><use transform="matrix(0.06234567901234567,0,0,0.06234567901234567,21.072839506172837,0)" xlink:href="#cv"/></g><g id="N"><use transform="matrix(0.06234567901234567,0,0,0.06234567901234567,0,0)" xlink:href="#cK"/><use transform="matrix(0.06234567901234567,0,0,0.06234567901234567,12.469135802469133,0)" xlink:href="#cJ"/><use transform="matrix(0.06234567901234567,0,0,0.06234567901234567,24.938271604938265,0)" xlink:href="#cL"/><use transform="matrix(0.06234567901234567,0,0,0.06234567901234567,32.3574074074074,0)" xlink:href="#cK"/><use transform="matrix(0.06234567901234567,0,0,0.06234567901234567,44.82654320987653,0)" xlink:href="#cI"/><use transform="matrix(0.06234567901234567,0,0,0.06234567901234567,58.48024691358023,0)" xlink:href="#cJ"/><use transform="matrix(0.06234567901234567,0,0,0.06234567901234567,70.94938271604937,0)" xlink:href="#cD"/><use transform="matrix(0.06234567901234567,0,0,0.06234567901234567,77.18395061728394,0)" xlink:href="#cD"/></g><g id="O"><use transform="matrix(0.0685185185185185,0,0,0.0685185185185185,0,0)" xlink:href="#bP"/><use transform="matrix(0.0685185185185185,0,0,0.0685185185185185,15.005555555555553,0)" xlink:href="#bF"/><use transform="matrix(0.0685185185185185,0,0,0.0685185185185185,30.011111111111106,0)" xlink:href="#bA"/></g><path d="M135-194c53 0 70 44 70 98 0 56-19 98-73 100-31 1-45-17-59-34 3 33 2 69 2 105H25l-1-265h48c2 10 0 23 3 31 11-24 29-35 60-35zM114-30c33 0 39-31 40-66 0-38-9-64-40-64-56 0-55 130 0 130" id="cN"/><g id="P"><use transform="matrix(0.0685185185185185,0,0,0.0685185185185185,0,0)" xlink:href="#cN"/><use transform="matrix(0.0685185185185185,0,0,0.0685185185185185,15.005555555555553,0)" xlink:href="#bz"/><use transform="matrix(0.0685185185185185,0,0,0.0685185185185185,24.598148148148145,0)" xlink:href="#bH"/><use transform="matrix(0.0685185185185185,0,0,0.0685185185185185,39.6037037037037,0)" xlink:href="#bB"/><use transform="matrix(0.0685185185185185,0,0,0.0685185185185185,54.609259259259254,0)" xlink:href="#bz"/><use transform="matrix(0.0685185185185185,0,0,0.0685185185185185,64.20185185185184,0)" xlink:href="#bv"/><use transform="matrix(0.0685185185185185,0,0,0.0685185185185185,77.90555555555554,0)" xlink:href="#bu"/></g><g id="Q"><use transform="matrix(0.0685185185185185,0,0,0.0685185185185185,0,0)" xlink:href="#bu"/><use transform="matrix(0.0685185185185185,0,0,0.0685185185185185,21.925925925925924,0)" xlink:href="#bH"/><use transform="matrix(0.0685185185185185,0,0,0.0685185185185185,36.93148148148148,0)" xlink:href="#cd"/><use transform="matrix(0.0685185185185185,0,0,0.0685185185185185,51.93703703703703,0)" xlink:href="#bw"/><use transform="matrix(0.0685185185185185,0,0,0.0685185185185185,58.78888888888888,0)" xlink:href="#bC"/><use transform="matrix(0.0685185185185185,0,0,0.0685185185185185,66.94259259259258,0)" xlink:href="#bH"/><use transform="matrix(0.0685185185185185,0,0,0.0685185185185185,81.94814814814814,0)" xlink:href="#bz"/><use transform="matrix(0.0685185185185185,0,0,0.0685185185185185,91.54074074074073,0)" xlink:href="#by"/></g><g id="R"><use transform="matrix(0.0685185185185185,0,0,0.0685185185185185,0,0)" xlink:href="#bC"/><use transform="matrix(0.0685185185185185,0,0,0.0685185185185185,8.153703703703702,0)" xlink:href="#bF"/><use transform="matrix(0.0685185185185185,0,0,0.0685185185185185,23.159259259259255,0)" xlink:href="#bA"/></g><g id="S"><use transform="matrix(0.0685185185185185,0,0,0.0685185185185185,0,0)" xlink:href="#ck"/><use transform="matrix(0.0685185185185185,0,0,0.0685185185185185,13.7037037037037,0)" xlink:href="#ci"/><use transform="matrix(0.0685185185185185,0,0,0.0685185185185185,27.4074074074074,0)" xlink:href="#cj"/><use transform="matrix(0.0685185185185185,0,0,0.0685185185185185,35.5611111111111,0)" xlink:href="#ck"/><use transform="matrix(0.0685185185185185,0,0,0.0685185185185185,49.264814814814805,0)" xlink:href="#cl"/><use transform="matrix(0.0685185185185185,0,0,0.0685185185185185,64.27037037037036,0)" xlink:href="#ci"/><use transform="matrix(0.0685185185185185,0,0,0.0685185185185185,77.97407407407405,0)" xlink:href="#cm"/><use transform="matrix(0.0685185185185185,0,0,0.0685185185185185,84.8259259259259,0)" xlink:href="#cm"/></g><path fill="#635dff" d="M62-158H24l-5-90h48" id="cO"/><path fill="#635dff" d="M137-138c1-29-70-34-71-4 15 46 118 7 119 86 1 83-164 76-172 9l43-7c4 19 20 25 44 25 33 8 57-30 24-41C81-84 22-81 20-136c-2-80 154-74 161-7" id="cP"/><g id="T"><use transform="matrix(0.0685185185185185,0,0,0.0685185185185185,0,0)" xlink:href="#cn"/><use transform="matrix(0.0685185185185185,0,0,0.0685185185185185,13.7037037037037,0)" xlink:href="#co"/><use transform="matrix(0.0685185185185185,0,0,0.0685185185185185,35.629629629629626,0)" xlink:href="#ci"/><use transform="matrix(0.0685185185185185,0,0,0.0685185185185185,49.333333333333336,0)" xlink:href="#cp"/><use transform="matrix(0.0685185185185185,0,0,0.0685185185185185,56.185185185185176,0)" xlink:href="#cm"/><use transform="matrix(0.0685185185185185,0,0,0.0685185185185185,63.037037037037024,0)" xlink:href="#cO"/><use transform="matrix(0.0685185185185185,0,0,0.0685185185185185,68.8611111111111,0)" xlink:href="#cP"/></g><path d="M135-194c52 0 70 43 70 98 0 56-19 99-73 100-30 1-46-15-58-35L72 0H24l1-261h50v104c11-23 29-37 60-37zM114-30c31 0 40-27 40-66 0-37-7-63-39-63s-41 28-41 65c0 36 8 64 40 64" id="cQ"/><path d="M144 0l-44-69L55 0H2l70-98-66-92h53l41 62 40-62h54l-67 91 71 99h-54" id="cR"/><g id="U"><use transform="matrix(0.0685185185185185,0,0,0.0685185185185185,0,0)" xlink:href="#bw"/><use transform="matrix(0.0685185185185185,0,0,0.0685185185185185,6.85185185185185,0)" xlink:href="#cd"/><use transform="matrix(0.0685185185185185,0,0,0.0685185185185185,21.857407407407404,0)" xlink:href="#cQ"/><use transform="matrix(0.0685185185185185,0,0,0.0685185185185185,36.86296296296295,0)" xlink:href="#bH"/><use transform="matrix(0.0685185185185185,0,0,0.0685185185185185,51.868518518518506,0)" xlink:href="#cR"/></g><g id="V"><use transform="matrix(0.0685185185185185,0,0,0.0685185185185185,0,0)" xlink:href="#bN"/><use transform="matrix(0.0685185185185185,0,0,0.0685185185185185,8.153703703703702,0)" xlink:href="#bM"/><use transform="matrix(0.0685185185185185,0,0,0.0685185185185185,21.8574074074074,0)" xlink:href="#bz"/><use transform="matrix(0.0685185185185185,0,0,0.0685185185185185,31.449999999999992,0)" xlink:href="#bA"/><use transform="matrix(0.0685185185185185,0,0,0.0685185185185185,45.15370370370369,0)" xlink:href="#bD"/><use transform="matrix(0.0685185185185185,0,0,0.0685185185185185,60.159259259259244,0)" xlink:href="#bA"/><use transform="matrix(0.0685185185185185,0,0,0.0685185185185185,73.86296296296294,0)" xlink:href="#cd"/><use transform="matrix(0.0685185185185185,0,0,0.0685185185185185,88.8685185185185,0)" xlink:href="#bC"/><use transform="matrix(0.0685185185185185,0,0,0.0685185185185185,97.02222222222221,0)" xlink:href="#bw"/><use transform="matrix(0.0685185185185185,0,0,0.0685185185185185,103.87407407407404,0)" xlink:href="#bv"/><use transform="matrix(0.0685185185185185,0,0,0.0685185185185185,117.57777777777774,0)" xlink:href="#bx"/><use transform="matrix(0.0685185185185185,0,0,0.0685185185185185,124.42962962962959,0)" xlink:href="#by"/></g><path d="M128 0H69L1-190h53L99-40l48-150h52" id="cS"/><g id="W"><use transform="matrix(0.0685185185185185,0,0,0.0685185185185185,0,0)" xlink:href="#cN"/><use transform="matrix(0.0685185185185185,0,0,0.0685185185185185,15.005555555555553,0)" xlink:href="#bz"/><use transform="matrix(0.0685185185185185,0,0,0.0685185185185185,24.598148148148145,0)" xlink:href="#bH"/><use transform="matrix(0.0685185185185185,0,0,0.0685185185185185,39.6037037037037,0)" xlink:href="#cS"/><use transform="matrix(0.0685185185185185,0,0,0.0685185185185185,53.3074074074074,0)" xlink:href="#bw"/><use transform="matrix(0.0685185185185185,0,0,0.0685185185185185,60.15925925925925,0)" xlink:href="#bD"/><use transform="matrix(0.0685185185185185,0,0,0.0685185185185185,75.1648148148148,0)" xlink:href="#bA"/><use transform="matrix(0.0685185185185185,0,0,0.0685185185185185,88.8685185185185,0)" xlink:href="#bD"/></g><g id="X"><use transform="matrix(0.0685185185185185,0,0,0.0685185185185185,0,0)" xlink:href="#bw"/><use transform="matrix(0.0685185185185185,0,0,0.0685185185185185,6.85185185185185,0)" xlink:href="#cd"/></g><g id="Y"><use transform="matrix(0.0685185185185185,0,0,0.0685185185185185,0,0)" xlink:href="#bR"/><use transform="matrix(0.0685185185185185,0,0,0.0685185185185185,17.746296296296293,0)" xlink:href="#bM"/><use transform="matrix(0.0685185185185185,0,0,0.0685185185185185,31.449999999999996,0)" xlink:href="#bM"/><use transform="matrix(0.0685185185185185,0,0,0.0685185185185185,45.1537037037037,0)" xlink:href="#bH"/><use transform="matrix(0.0685185185185185,0,0,0.0685185185185185,60.15925925925925,0)" xlink:href="#cc"/><use transform="matrix(0.0685185185185185,0,0,0.0685185185185185,75.1648148148148,0)" xlink:href="#cd"/><use transform="matrix(0.0685185185185185,0,0,0.0685185185185185,90.17037037037036,0)" xlink:href="#bC"/><use transform="matrix(0.0685185185185185,0,0,0.0685185185185185,98.32407407407406,0)" xlink:href="#by"/><use transform="matrix(0.0685185185185185,0,0,0.0685185185185185,112.02777777777776,0)" xlink:href="#ce"/><use transform="matrix(0.0685185185185185,0,0,0.0685185185185185,118.8796296296296,0)" xlink:href="#cf"/><use transform="matrix(0.0685185185185185,0,0,0.0685185185185185,125.73148148148145,0)" xlink:href="#by"/><use transform="matrix(0.0685185185185185,0,0,0.0685185185185185,139.43518518518516,0)" xlink:href="#bH"/><use transform="matrix(0.0685185185185185,0,0,0.0685185185185185,154.44074074074072,0)" xlink:href="#cd"/><use transform="matrix(0.0685185185185185,0,0,0.0685185185185185,169.4462962962963,0)" xlink:href="#cb"/></g><g id="Z"><use transform="matrix(0.0685185185185185,0,0,0.0685185185185185,0,0)" xlink:href="#bw"/><use transform="matrix(0.0685185185185185,0,0,0.0685185185185185,6.85185185185185,0)" xlink:href="#cd"/><use transform="matrix(0.0685185185185185,0,0,0.0685185185185185,21.857407407407404,0)" xlink:href="#cQ"/><use transform="matrix(0.0685185185185185,0,0,0.0685185185185185,36.86296296296295,0)" xlink:href="#bH"/><use transform="matrix(0.0685185185185185,0,0,0.0685185185185185,51.868518518518506,0)" xlink:href="#cR"/></g><g id="aa"><use transform="matrix(0.0685185185185185,0,0,0.0685185185185185,0,0)" xlink:href="#bL"/><use transform="matrix(0.0685185185185185,0,0,0.0685185185185185,8.153703703703702,0)" xlink:href="#bH"/><use transform="matrix(0.0685185185185185,0,0,0.0685185185185185,23.159259259259255,0)" xlink:href="#bz"/></g><path d="M123 10C108 53 80 86 19 72V37c35 8 53-11 59-39L3-190h52l48 148c12-52 28-100 44-148h51" id="cT"/><g id="ab"><use transform="matrix(0.0685185185185185,0,0,0.0685185185185185,0,0)" xlink:href="#bv"/><use transform="matrix(0.0685185185185185,0,0,0.0685185185185185,13.7037037037037,0)" xlink:href="#cd"/><use transform="matrix(0.0685185185185185,0,0,0.0685185185185185,28.709259259259255,0)" xlink:href="#cT"/></g><g id="ac"><use transform="matrix(0.0685185185185185,0,0,0.0685185185185185,0,0)" xlink:href="#bA"/><use transform="matrix(0.0685185185185185,0,0,0.0685185185185185,13.7037037037037,0)" xlink:href="#bu"/><use transform="matrix(0.0685185185185185,0,0,0.0685185185185185,35.629629629629626,0)" xlink:href="#bv"/><use transform="matrix(0.0685185185185185,0,0,0.0685185185185185,49.333333333333336,0)" xlink:href="#bw"/><use transform="matrix(0.0685185185185185,0,0,0.0685185185185185,56.185185185185176,0)" xlink:href="#bx"/></g><g id="ad"><use transform="matrix(0.0685185185185185,0,0,0.0685185185185185,0,0)" xlink:href="#bL"/><use transform="matrix(0.0685185185185185,0,0,0.0685185185185185,8.153703703703702,0)" xlink:href="#bz"/><use transform="matrix(0.0685185185185185,0,0,0.0685185185185185,17.746296296296293,0)" xlink:href="#bH"/><use transform="matrix(0.0685185185185185,0,0,0.0685185185185185,32.751851851851846,0)" xlink:href="#bu"/></g><g id="ae"><use transform="matrix(0.0685185185185185,0,0,0.0685185185185185,0,0)" xlink:href="#bG"/><use transform="matrix(0.0685185185185185,0,0,0.0685185185185185,17.746296296296293,0)" xlink:href="#bH"/><use transform="matrix(0.0685185185185185,0,0,0.0685185185185185,32.751851851851846,0)" xlink:href="#bI"/><use transform="matrix(0.0685185185185185,0,0,0.0685185185185185,40.90555555555555,0)" xlink:href="#bJ"/><use transform="matrix(0.0685185185185185,0,0,0.0685185185185185,47.7574074074074,0)" xlink:href="#bK"/></g><path d="M84 4C32 4 15-41 15-95c0-55 18-99 73-99 29 0 47 12 58 34l2-30h48l-1 265h-49V-32C136-9 114 4 84 4zm21-34c32 0 41-29 41-66 0-36-9-64-40-64-33 0-39 30-40 65 0 43 13 65 39 65" id="cU"/><g id="af"><use transform="matrix(0.0685185185185185,0,0,0.0685185185185185,0,0)" xlink:href="#bz"/><use transform="matrix(0.0685185185185185,0,0,0.0685185185185185,9.592592592592592,0)" xlink:href="#bA"/><use transform="matrix(0.0685185185185185,0,0,0.0685185185185185,23.29629629629629,0)" xlink:href="#cU"/><use transform="matrix(0.0685185185185185,0,0,0.0685185185185185,38.30185185185184,0)" xlink:href="#cc"/><use transform="matrix(0.0685185185185185,0,0,0.0685185185185185,53.307407407407396,0)" xlink:href="#bw"/><use transform="matrix(0.0685185185185185,0,0,0.0685185185185185,60.159259259259244,0)" xlink:href="#bz"/><use transform="matrix(0.0685185185185185,0,0,0.0685185185185185,69.75185185185184,0)" xlink:href="#bw"/><use transform="matrix(0.0685185185185185,0,0,0.0685185185185185,76.60370370370369,0)" xlink:href="#cd"/><use transform="matrix(0.0685185185185185,0,0,0.0685185185185185,91.60925925925923,0)" xlink:href="#bB"/></g><use transform="matrix(0.0685185185185185,0,0,0.0685185185185185,0,0)" xlink:href="#bv" id="ag"/><g id="ah"><use transform="matrix(0.0685185185185185,0,0,0.0685185185185185,0,0)" xlink:href="#bD"/><use transform="matrix(0.0685185185185185,0,0,0.0685185185185185,15.005555555555553,0)" xlink:href="#bH"/><use transform="matrix(0.0685185185185185,0,0,0.0685185185185185,30.011111111111106,0)" xlink:href="#bu"/><use transform="matrix(0.0685185185185185,0,0,0.0685185185185185,51.93703703703703,0)" xlink:href="#bv"/><use transform="matrix(0.0685185185185185,0,0,0.0685185185185185,65.64074074074072,0)" xlink:href="#bw"/><use transform="matrix(0.0685185185185185,0,0,0.0685185185185185,72.49259259259259,0)" xlink:href="#cd"/></g><g id="ai"><use transform="matrix(0.0685185185185185,0,0,0.0685185185185185,0,0)" xlink:href="#bz"/><use transform="matrix(0.0685185185185185,0,0,0.0685185185185185,9.592592592592592,0)" xlink:href="#bA"/><use transform="matrix(0.0685185185185185,0,0,0.0685185185185185,23.29629629629629,0)" xlink:href="#cd"/><use transform="matrix(0.0685185185185185,0,0,0.0685185185185185,38.30185185185184,0)" xlink:href="#bA"/><use transform="matrix(0.0685185185185185,0,0,0.0685185185185185,52.005555555555546,0)" xlink:href="#bE"/><use transform="matrix(0.0685185185185185,0,0,0.0685185185185185,71.19074074074072,0)" xlink:href="#bv"/><use transform="matrix(0.0685185185185185,0,0,0.0685185185185185,84.89444444444442,0)" xlink:href="#bx"/></g><g id="aj"><use transform="matrix(0.0685185185185185,0,0,0.0685185185185185,0,0)" xlink:href="#bZ"/><use transform="matrix(0.0685185185185185,0,0,0.0685185185185185,23.227777777777774,0)" xlink:href="#bF"/><use transform="matrix(0.0685185185185185,0,0,0.0685185185185185,38.23333333333333,0)" xlink:href="#bA"/><use transform="matrix(0.0685185185185185,0,0,0.0685185185185185,51.93703703703703,0)" xlink:href="#cd"/></g><use transform="matrix(0.0685185185185185,0,0,0.0685185185185185,0,0)" xlink:href="#bv" id="ak"/><g id="al"><use transform="matrix(0.0685185185185185,0,0,0.0685185185185185,0,0)" xlink:href="#bz"/><use transform="matrix(0.0685185185185185,0,0,0.0685185185185185,9.592592592592592,0)" xlink:href="#bA"/><use transform="matrix(0.0685185185185185,0,0,0.0685185185185185,23.29629629629629,0)" xlink:href="#cd"/><use transform="matrix(0.0685185185185185,0,0,0.0685185185185185,38.30185185185184,0)" xlink:href="#bA"/><use transform="matrix(0.0685185185185185,0,0,0.0685185185185185,52.005555555555546,0)" xlink:href="#bE"/><use transform="matrix(0.0685185185185185,0,0,0.0685185185185185,71.19074074074072,0)" xlink:href="#bv"/><use transform="matrix(0.0685185185185185,0,0,0.0685185185185185,84.89444444444442,0)" xlink:href="#bx"/></g><g id="am"><use transform="matrix(0.0685185185185185,0,0,0.0685185185185185,0,0)" xlink:href="#bw"/><use transform="matrix(0.0685185185185185,0,0,0.0685185185185185,6.85185185185185,0)" xlink:href="#by"/></g><g id="an"><use transform="matrix(0.0685185185185185,0,0,0.0685185185185185,0,0)" xlink:href="#bD"/><use transform="matrix(0.0685185185185185,0,0,0.0685185185185185,15.005555555555553,0)" xlink:href="#bA"/><use transform="matrix(0.0685185185185185,0,0,0.0685185185185185,28.709259259259255,0)" xlink:href="#bC"/><use transform="matrix(0.0685185185185185,0,0,0.0685185185185185,36.86296296296295,0)" xlink:href="#bA"/><use transform="matrix(0.0685185185185185,0,0,0.0685185185185185,50.566666666666656,0)" xlink:href="#bM"/><use transform="matrix(0.0685185185185185,0,0,0.0685185185185185,64.27037037037036,0)" xlink:href="#bC"/><use transform="matrix(0.0685185185185185,0,0,0.0685185185185185,72.42407407407406,0)" xlink:href="#bA"/><use transform="matrix(0.0685185185185185,0,0,0.0685185185185185,86.12777777777775,0)" xlink:href="#bD"/></g><g id="ao"><use transform="matrix(0.0685185185185185,0,0,0.0685185185185185,0,0)" xlink:href="#bC"/><use transform="matrix(0.0685185185185185,0,0,0.0685185185185185,8.153703703703702,0)" xlink:href="#bF"/><use transform="matrix(0.0685185185185185,0,0,0.0685185185185185,23.159259259259255,0)" xlink:href="#bA"/></g><g id="ap"><use transform="matrix(0.0685185185185185,0,0,0.0685185185185185,0,0)" xlink:href="#ck"/><use transform="matrix(0.0685185185185185,0,0,0.0685185185185185,13.7037037037037,0)" xlink:href="#ci"/><use transform="matrix(0.0685185185185185,0,0,0.0685185185185185,27.4074074074074,0)" xlink:href="#cj"/><use transform="matrix(0.0685185185185185,0,0,0.0685185185185185,35.5611111111111,0)" xlink:href="#ck"/><use transform="matrix(0.0685185185185185,0,0,0.0685185185185185,49.264814814814805,0)" xlink:href="#cl"/><use transform="matrix(0.0685185185185185,0,0,0.0685185185185185,64.27037037037036,0)" xlink:href="#ci"/><use transform="matrix(0.0685185185185185,0,0,0.0685185185185185,77.97407407407405,0)" xlink:href="#cm"/><use transform="matrix(0.0685185185185185,0,0,0.0685185185185185,84.8259259259259,0)" xlink:href="#cm"/></g><path d="M76-54c-1 42 2 86-19 110H24C36 42 46 24 48 0H25v-54h51" id="cV"/><g id="aq"><use transform="matrix(0.0685185185185185,0,0,0.0685185185185185,0,0)" xlink:href="#bw"/><use transform="matrix(0.0685185185185185,0,0,0.0685185185185185,6.85185185185185,0)" xlink:href="#cd"/><use transform="matrix(0.0685185185185185,0,0,0.0685185185185185,21.857407407407404,0)" xlink:href="#cQ"/><use transform="matrix(0.0685185185185185,0,0,0.0685185185185185,36.86296296296295,0)" xlink:href="#bH"/><use transform="matrix(0.0685185185185185,0,0,0.0685185185185185,51.868518518518506,0)" xlink:href="#cR"/><use transform="matrix(0.0685185185185185,0,0,0.0685185185185185,65.57222222222221,0)" xlink:href="#cV"/></g><g id="ar"><use transform="matrix(0.0685185185185185,0,0,0.0685185185185185,0,0)" xlink:href="#bC"/><use transform="matrix(0.0685185185185185,0,0,0.0685185185185185,8.153703703703702,0)" xlink:href="#bF"/><use transform="matrix(0.0685185185185185,0,0,0.0685185185185185,23.159259259259255,0)" xlink:href="#bA"/></g><g id="as"><use transform="matrix(0.0685185185185185,0,0,0.0685185185185185,0,0)" xlink:href="#cN"/><use transform="matrix(0.0685185185185185,0,0,0.0685185185185185,15.005555555555553,0)" xlink:href="#bz"/><use transform="matrix(0.0685185185185185,0,0,0.0685185185185185,24.598148148148145,0)" xlink:href="#bH"/><use transform="matrix(0.0685185185185185,0,0,0.0685185185185185,39.6037037037037,0)" xlink:href="#bB"/><use transform="matrix(0.0685185185185185,0,0,0.0685185185185185,54.609259259259254,0)" xlink:href="#bz"/><use transform="matrix(0.0685185185185185,0,0,0.0685185185185185,64.20185185185184,0)" xlink:href="#bv"/><use transform="matrix(0.0685185185185185,0,0,0.0685185185185185,77.90555555555554,0)" xlink:href="#bu"/></g><g id="at"><use transform="matrix(0.0685185185185185,0,0,0.0685185185185185,0,0)" xlink:href="#cS"/><use transform="matrix(0.0685185185185185,0,0,0.0685185185185185,13.7037037037037,0)" xlink:href="#bA"/><use transform="matrix(0.0685185185185185,0,0,0.0685185185185185,27.4074074074074,0)" xlink:href="#bz"/><use transform="matrix(0.0685185185185185,0,0,0.0685185185185185,36.99999999999999,0)" xlink:href="#bw"/><use transform="matrix(0.0685185185185185,0,0,0.0685185185185185,43.85185185185185,0)" xlink:href="#bL"/><use transform="matrix(0.0685185185185185,0,0,0.0685185185185185,52.005555555555546,0)" xlink:href="#bw"/><use transform="matrix(0.0685185185185185,0,0,0.0685185185185185,58.8574074074074,0)" xlink:href="#bA"/><use transform="matrix(0.0685185185185185,0,0,0.0685185185185185,72.56111111111109,0)" xlink:href="#by"/></g><g id="au"><use transform="matrix(0.0685185185185185,0,0,0.0685185185185185,0,0)" xlink:href="#bE"/><use transform="matrix(0.0685185185185185,0,0,0.0685185185185185,19.185185185185183,0)" xlink:href="#bF"/><use transform="matrix(0.0685185185185185,0,0,0.0685185185185185,34.190740740740736,0)" xlink:href="#bw"/><use transform="matrix(0.0685185185185185,0,0,0.0685185185185185,41.042592592592584,0)" xlink:href="#bM"/><use transform="matrix(0.0685185185185185,0,0,0.0685185185185185,54.746296296296286,0)" xlink:href="#bF"/></g><g id="av"><use transform="matrix(0.0685185185185185,0,0,0.0685185185185185,0,0)" xlink:href="#cM"/><use transform="matrix(0.0685185185185185,0,0,0.0685185185185185,15.005555555555553,0)" xlink:href="#cx"/><use transform="matrix(0.0685185185185185,0,0,0.0685185185185185,30.011111111111106,0)" xlink:href="#ct"/><use transform="matrix(0.0685185185185185,0,0,0.0685185185185185,51.93703703703703,0)" xlink:href="#cJ"/><use transform="matrix(0.0685185185185185,0,0,0.0685185185185185,65.64074074074072,0)" xlink:href="#cF"/><use transform="matrix(0.0685185185185185,0,0,0.0685185185185185,72.49259259259259,0)" xlink:href="#cr"/></g><g id="aw"><use transform="matrix(0.0685185185185185,0,0,0.0685185185185185,0,0)" xlink:href="#cv"/><use transform="matrix(0.0685185185185185,0,0,0.0685185185185185,13.7037037037037,0)" xlink:href="#ct"/><use transform="matrix(0.0685185185185185,0,0,0.0685185185185185,35.629629629629626,0)" xlink:href="#cJ"/><use transform="matrix(0.0685185185185185,0,0,0.0685185185185185,49.333333333333336,0)" xlink:href="#cF"/><use transform="matrix(0.0685185185185185,0,0,0.0685185185185185,56.185185185185176,0)" xlink:href="#cD"/></g><g id="ax"><use transform="matrix(0.0685185185185185,0,0,0.0685185185185185,0,0)" xlink:href="#bC"/><use transform="matrix(0.0685185185185185,0,0,0.0685185185185185,8.153703703703702,0)" xlink:href="#bF"/><use transform="matrix(0.0685185185185185,0,0,0.0685185185185185,23.159259259259255,0)" xlink:href="#bv"/><use transform="matrix(0.0685185185185185,0,0,0.0685185185185185,36.86296296296295,0)" xlink:href="#bC"/></g><g id="ay"><use transform="matrix(0.0685185185185185,0,0,0.0685185185185185,0,0)" xlink:href="#cd"/><use transform="matrix(0.0685185185185185,0,0,0.0685185185185185,15.005555555555553,0)" xlink:href="#bH"/><use transform="matrix(0.0685185185185185,0,0,0.0685185185185185,30.011111111111106,0)" xlink:href="#bC"/><use transform="matrix(0.0685185185185185,0,0,0.0685185185185185,38.1648148148148,0)" xlink:href="#bw"/><use transform="matrix(0.0685185185185185,0,0,0.0685185185185185,45.01666666666665,0)" xlink:href="#bM"/><use transform="matrix(0.0685185185185185,0,0,0.0685185185185185,58.720370370370354,0)" xlink:href="#bA"/></g><g id="az"><use transform="matrix(0.0685185185185185,0,0,0.0685185185185185,0,0)" xlink:href="#cQ"/><use transform="matrix(0.0685185185185185,0,0,0.0685185185185185,15.005555555555553,0)" xlink:href="#bA"/><use transform="matrix(0.0685185185185185,0,0,0.0685185185185185,28.709259259259255,0)" xlink:href="#bx"/><use transform="matrix(0.0685185185185185,0,0,0.0685185185185185,35.5611111111111,0)" xlink:href="#bH"/><use transform="matrix(0.0685185185185185,0,0,0.0685185185185185,50.566666666666656,0)" xlink:href="#cd"/><use transform="matrix(0.0685185185185185,0,0,0.0685185185185185,65.57222222222221,0)" xlink:href="#bB"/><use transform="matrix(0.0685185185185185,0,0,0.0685185185185185,80.57777777777775,0)" xlink:href="#by"/></g><g id="aA"><use transform="matrix(0.0685185185185185,0,0,0.0685185185185185,0,0)" xlink:href="#bC"/><use transform="matrix(0.0685185185185185,0,0,0.0685185185185185,8.153703703703702,0)" xlink:href="#bH"/></g><g id="aB"><use transform="matrix(0.0685185185185185,0,0,0.0685185185185185,0,0)" xlink:href="#cQ"/><use transform="matrix(0.0685185185185185,0,0,0.0685185185185185,15.005555555555553,0)" xlink:href="#cT"/></g><g id="aC"><use transform="matrix(0.0685185185185185,0,0,0.0685185185185185,0,0)" xlink:href="#bz"/><use transform="matrix(0.0685185185185185,0,0,0.0685185185185185,9.592592592592592,0)" xlink:href="#bA"/><use transform="matrix(0.0685185185185185,0,0,0.0685185185185185,23.29629629629629,0)" xlink:href="#bv"/><use transform="matrix(0.0685185185185185,0,0,0.0685185185185185,36.99999999999999,0)" xlink:href="#bD"/><use transform="matrix(0.0685185185185185,0,0,0.0685185185185185,52.005555555555546,0)" xlink:href="#bw"/><use transform="matrix(0.0685185185185185,0,0,0.0685185185185185,58.8574074074074,0)" xlink:href="#cd"/><use transform="matrix(0.0685185185185185,0,0,0.0685185185185185,73.86296296296294,0)" xlink:href="#bB"/></g><g id="aD"><use transform="matrix(0.0685185185185185,0,0,0.0685185185185185,0,0)" xlink:href="#bw"/><use transform="matrix(0.0685185185185185,0,0,0.0685185185185185,6.85185185185185,0)" xlink:href="#cd"/></g><g id="aE"><use transform="matrix(0.0685185185185185,0,0,0.0685185185185185,0,0)" xlink:href="#bR"/><use transform="matrix(0.0685185185185185,0,0,0.0685185185185185,17.746296296296293,0)" xlink:href="#bM"/><use transform="matrix(0.0685185185185185,0,0,0.0685185185185185,31.449999999999996,0)" xlink:href="#bM"/><use transform="matrix(0.0685185185185185,0,0,0.0685185185185185,45.1537037037037,0)" xlink:href="#bH"/><use transform="matrix(0.0685185185185185,0,0,0.0685185185185185,60.15925925925925,0)" xlink:href="#cc"/><use transform="matrix(0.0685185185185185,0,0,0.0685185185185185,75.1648148148148,0)" xlink:href="#cd"/><use transform="matrix(0.0685185185185185,0,0,0.0685185185185185,90.17037037037036,0)" xlink:href="#bC"/><use transform="matrix(0.0685185185185185,0,0,0.0685185185185185,98.32407407407406,0)" xlink:href="#by"/><use transform="matrix(0.0685185185185185,0,0,0.0685185185185185,112.02777777777776,0)" xlink:href="#ce"/><use transform="matrix(0.0685185185185185,0,0,0.0685185185185185,118.8796296296296,0)" xlink:href="#cf"/><use transform="matrix(0.0685185185185185,0,0,0.0685185185185185,125.73148148148145,0)" xlink:href="#by"/><use transform="matrix(0.0685185185185185,0,0,0.0685185185185185,139.43518518518516,0)" xlink:href="#bH"/><use transform="matrix(0.0685185185185185,0,0,0.0685185185185185,154.44074074074072,0)" xlink:href="#cd"/></g><g id="aG"><use transform="matrix(0.0685185185185185,0,0,0.0685185185185185,0,0)" xlink:href="#bJ"/><use transform="matrix(0.0685185185185185,0,0,0.0685185185185185,6.85185185185185,0)" xlink:href="#bL"/></g><use transform="matrix(0.0685185185185185,0,0,0.0685185185185185,0,0)" xlink:href="#bv" id="aH"/><g id="aI"><use transform="matrix(0.0685185185185185,0,0,0.0685185185185185,0,0)" xlink:href="#bu"/><use transform="matrix(0.0685185185185185,0,0,0.0685185185185185,21.925925925925924,0)" xlink:href="#bv"/><use transform="matrix(0.0685185185185185,0,0,0.0685185185185185,35.629629629629626,0)" xlink:href="#bC"/><use transform="matrix(0.0685185185185185,0,0,0.0685185185185185,43.78333333333333,0)" xlink:href="#bM"/><use transform="matrix(0.0685185185185185,0,0,0.0685185185185185,57.487037037037034,0)" xlink:href="#bF"/></g><g id="aJ"><use transform="matrix(0.0685185185185185,0,0,0.0685185185185185,0,0)" xlink:href="#bw"/><use transform="matrix(0.0685185185185185,0,0,0.0685185185185185,6.85185185185185,0)" xlink:href="#by"/></g><g id="aK"><use transform="matrix(0.0685185185185185,0,0,0.0685185185185185,0,0)" xlink:href="#bL"/><use transform="matrix(0.0685185185185185,0,0,0.0685185185185185,8.153703703703702,0)" xlink:href="#bH"/><use transform="matrix(0.0685185185185185,0,0,0.0685185185185185,23.159259259259255,0)" xlink:href="#cc"/><use transform="matrix(0.0685185185185185,0,0,0.0685185185185185,38.1648148148148,0)" xlink:href="#cd"/><use transform="matrix(0.0685185185185185,0,0,0.0685185185185185,53.17037037037035,0)" xlink:href="#bD"/><use transform="matrix(0.0685185185185185,0,0,0.0685185185185185,68.17592592592591,0)" xlink:href="#cV"/></g><g id="aL"><use transform="matrix(0.0685185185185185,0,0,0.0685185185185185,0,0)" xlink:href="#bw"/><use transform="matrix(0.0685185185185185,0,0,0.0685185185185185,6.85185185185185,0)" xlink:href="#cd"/><use transform="matrix(0.0685185185185185,0,0,0.0685185185185185,21.857407407407404,0)" xlink:href="#bw"/><use transform="matrix(0.0685185185185185,0,0,0.0685185185185185,28.709259259259255,0)" xlink:href="#bC"/><use transform="matrix(0.0685185185185185,0,0,0.0685185185185185,36.86296296296295,0)" xlink:href="#bw"/><use transform="matrix(0.0685185185185185,0,0,0.0685185185185185,43.7148148148148,0)" xlink:href="#bv"/><use transform="matrix(0.0685185185185185,0,0,0.0685185185185185,57.4185185185185,0)" xlink:href="#bC"/><use transform="matrix(0.0685185185185185,0,0,0.0685185185185185,65.57222222222221,0)" xlink:href="#bA"/><use transform="matrix(0.0685185185185185,0,0,0.0685185185185185,79.27592592592589,0)" xlink:href="#by"/></g><g id="aM"><use transform="matrix(0.0685185185185185,0,0,0.0685185185185185,0,0)" xlink:href="#bL"/><use transform="matrix(0.0685185185185185,0,0,0.0685185185185185,8.153703703703702,0)" xlink:href="#bH"/><use transform="matrix(0.0685185185185185,0,0,0.0685185185185185,23.159259259259255,0)" xlink:href="#bz"/></g><g id="aN"><use transform="matrix(0.0685185185185185,0,0,0.0685185185185185,0,0)" xlink:href="#bC"/><use transform="matrix(0.0685185185185185,0,0,0.0685185185185185,8.153703703703702,0)" xlink:href="#bF"/><use transform="matrix(0.0685185185185185,0,0,0.0685185185185185,23.159259259259255,0)" xlink:href="#bv"/><use transform="matrix(0.0685185185185185,0,0,0.0685185185185185,36.86296296296295,0)" xlink:href="#bC"/></g><g id="aO"><use transform="matrix(0.0685185185185185,0,0,0.0685185185185185,0,0)" xlink:href="#by"/><use transform="matrix(0.0685185185185185,0,0,0.0685185185185185,13.7037037037037,0)" xlink:href="#cN"/><use transform="matrix(0.0685185185185185,0,0,0.0685185185185185,28.709259259259255,0)" xlink:href="#bA"/><use transform="matrix(0.0685185185185185,0,0,0.0685185185185185,42.41296296296296,0)" xlink:href="#bM"/><use transform="matrix(0.0685185185185185,0,0,0.0685185185185185,56.11666666666666,0)" xlink:href="#bw"/><use transform="matrix(0.0685185185185185,0,0,0.0685185185185185,62.96851851851851,0)" xlink:href="#bL"/><use transform="matrix(0.0685185185185185,0,0,0.0685185185185185,71.1222222222222,0)" xlink:href="#bw"/><use transform="matrix(0.0685185185185185,0,0,0.0685185185185185,77.97407407407405,0)" xlink:href="#bM"/></g><g id="aP"><use transform="matrix(0.0685185185185185,0,0,0.0685185185185185,0,0)" xlink:href="#bw"/><use transform="matrix(0.0685185185185185,0,0,0.0685185185185185,6.85185185185185,0)" xlink:href="#bC"/></g><g id="aQ"><use transform="matrix(0.0685185185185185,0,0,0.0685185185185185,0,0)" xlink:href="#bE"/><use transform="matrix(0.0685185185185185,0,0,0.0685185185185185,19.185185185185183,0)" xlink:href="#bv"/><use transform="matrix(0.0685185185185185,0,0,0.0685185185185185,32.888888888888886,0)" xlink:href="#by"/></g><g id="aR"><use transform="matrix(0.0685185185185185,0,0,0.0685185185185185,0,0)" xlink:href="#bB"/><use transform="matrix(0.0685185185185185,0,0,0.0685185185185185,15.005555555555553,0)" xlink:href="#bw"/><use transform="matrix(0.0685185185185185,0,0,0.0685185185185185,21.857407407407404,0)" xlink:href="#cS"/><use transform="matrix(0.0685185185185185,0,0,0.0685185185185185,35.5611111111111,0)" xlink:href="#bA"/><use transform="matrix(0.0685185185185185,0,0,0.0685185185185185,49.264814814814805,0)" xlink:href="#cd"/></g><g id="aS"><use transform="matrix(0.0685185185185185,0,0,0.0685185185185185,0,0)" xlink:href="#bC"/><use transform="matrix(0.0685185185185185,0,0,0.0685185185185185,8.153703703703702,0)" xlink:href="#bH"/></g><path d="M23 0v-37h61v-169l-59 37v-38l62-41h46v211h57V0H23" id="cW"/><g id="aT"><use transform="matrix(0.1425925925925924,0,0,0.1425925925925924,0,0)" xlink:href="#cW"/><use transform="matrix(0.1425925925925924,0,0,0.1425925925925924,28.518518518518484,0)" xlink:href="#cb"/><use transform="matrix(0.1425925925925924,0,0,0.1425925925925924,45.487037037036984,0)" xlink:href="#ce"/></g><path d="M182-182c0 78-84 86-111 141h115V0H12c-6-101 99-100 120-180 1-22-12-31-33-32-23 0-32 14-35 34l-49-3c5-45 32-70 84-70 51 0 83 22 83 69" id="cX"/><g id="aU"><use transform="matrix(0.1425925925925924,0,0,0.1425925925925924,0,0)" xlink:href="#cX"/><use transform="matrix(0.1425925925925924,0,0,0.1425925925925924,28.518518518518484,0)" xlink:href="#ce"/><use transform="matrix(0.1425925925925924,0,0,0.1425925925925924,42.77777777777773,0)" xlink:href="#cb"/></g></defs></g></svg>